<svg width="85" height="85" viewBox="0 0 85 85" fill="none" xmlns="http://www.w3.org/2000/svg">
<path d="M83.2288 49.583C83.2288 45.3055 80.6827 41.6197 77.0309 39.9367V38.958C77.0309 19.9172 61.5405 4.42676 42.4997 4.42676C23.4589 4.42676 7.96842 19.9172 7.96842 38.958V39.9367C4.31662 41.6197 1.77051 45.3055 1.77051 49.583C1.77051 55.4415 6.53654 60.208 12.3955 60.208H15.9372C16.9151 60.208 17.708 59.4151 17.708 58.4372V40.7288C17.708 39.7509 16.9151 38.958 15.9372 38.958H12.3955C12.0967 38.958 11.8028 38.9785 11.5101 39.0029V38.958C11.5101 21.8705 25.4122 7.96842 42.4997 7.96842C59.5872 7.96842 73.4893 21.8705 73.4893 38.958V39.0029C73.1966 38.9785 72.9027 38.958 72.6038 38.958H69.0622C68.0842 38.958 67.2913 39.7509 67.2913 40.7288V58.4372C67.2913 59.4151 68.0842 60.208 69.0622 60.208H72.6038C72.9027 60.208 73.1966 60.1875 73.4893 60.1632V62.8643C73.4893 68.7228 68.7232 73.4893 62.8643 73.4893H49.583C49.583 71.5364 47.9946 69.9476 46.0413 69.9476H37.1872C35.2339 69.9476 33.6455 71.5364 33.6455 73.4893V77.0309C33.6455 78.9838 35.2339 80.5726 37.1872 80.5726H46.0413C47.9946 80.5726 49.583 78.9838 49.583 77.0309H62.8643C70.6756 77.0309 77.0309 70.6756 77.0309 62.8643V59.2293C80.6827 57.5464 83.2288 53.8605 83.2288 49.583ZM14.1663 42.4997V56.6663H12.3955C8.48982 56.6663 5.31217 53.4887 5.31217 49.583C5.31217 45.6773 8.48982 42.4997 12.3955 42.4997H14.1663ZM37.1872 77.0309V73.4893H46.0413L46.0426 75.2473C46.0426 75.2517 46.0413 75.2557 46.0413 75.2601C46.0413 75.2645 46.0426 75.2686 46.0426 75.2731L46.0439 77.0309H37.1872ZM72.6038 56.6663H70.833V42.4997H72.6038C76.5095 42.4997 79.6872 45.6773 79.6872 49.583C79.6872 53.4887 76.5095 56.6663 72.6038 56.6663ZM42.4997 61.0934C53.2405 61.0934 61.9788 52.3551 61.9788 41.6143C61.9788 30.8734 53.2405 22.1351 42.4997 22.1351C31.7588 22.1351 23.0205 30.8734 23.0205 41.6143C23.0205 45.0893 23.9518 48.4857 25.7209 51.4831L23.9379 60.7592C23.8143 61.4034 24.0564 62.0631 24.5683 62.4743C24.8882 62.7311 25.2807 62.8643 25.6768 62.8643C25.9145 62.8643 26.1532 62.8167 26.3789 62.7194L34.3295 59.2876C36.907 60.4864 39.6515 61.0934 42.4997 61.0934ZM28.0477 58.1415L29.3282 51.4762C29.4138 51.0305 29.3256 50.5692 29.0809 50.187C27.4329 47.6146 26.5622 44.6501 26.5622 41.6143C26.5622 32.8262 33.7121 25.6768 42.4997 25.6768C51.2873 25.6768 58.4372 32.8262 58.4372 41.6143C58.4372 50.4023 51.2873 57.5518 42.4997 57.5518C39.9394 57.5518 37.4803 56.9508 35.1907 55.7658C34.7194 55.5215 34.1626 55.5012 33.6749 55.7126L28.0477 58.1415ZM42.4997 46.9268H33.6455C32.6676 46.9268 31.8747 46.1339 31.8747 45.1559C31.8747 44.178 32.6676 43.3851 33.6455 43.3851H42.4997C43.4776 43.3851 44.2705 44.178 44.2705 45.1559C44.2705 46.1339 43.4776 46.9268 42.4997 46.9268ZM31.8747 38.0726C31.8747 37.0947 32.6676 36.3018 33.6455 36.3018H51.3538C52.3318 36.3018 53.1247 37.0947 53.1247 38.0726C53.1247 39.0505 52.3318 39.8434 51.3538 39.8434H33.6455C32.6676 39.8434 31.8747 39.0505 31.8747 38.0726Z" fill="white"/>
</svg>
