<svg width="224" height="132" viewBox="0 0 224 132" fill="none" xmlns="http://www.w3.org/2000/svg">
<path d="M147.879 78.2174C147.674 78.2174 147.504 78.0538 147.498 77.8475C147.492 77.6366 147.657 77.4605 147.868 77.4543C148.88 77.4229 149.897 77.3574 150.89 77.2594C151.101 77.2388 151.287 77.3921 151.308 77.6019C151.328 77.8116 151.175 77.9985 150.965 78.0196C149.955 78.1193 148.921 78.186 147.892 78.2179C147.888 78.2179 147.883 78.2174 147.879 78.2174ZM144.826 78.2122C144.821 78.2122 144.817 78.2122 144.813 78.2122C143.799 78.178 142.766 78.1114 141.741 78.0128C141.532 77.9928 141.378 77.8065 141.398 77.5962C141.418 77.3864 141.603 77.2303 141.814 77.2525C142.823 77.3494 143.841 77.4155 144.838 77.4486C145.049 77.4554 145.214 77.6321 145.207 77.8429C145.2 78.0492 145.031 78.2122 144.826 78.2122ZM138.748 77.6326C138.728 77.6326 138.708 77.6309 138.688 77.6281C137.683 77.4714 136.666 77.2816 135.664 77.0656C135.458 77.0211 135.327 76.8177 135.372 76.612C135.416 76.4057 135.62 76.2746 135.825 76.319C136.812 76.5322 137.815 76.7191 138.806 76.8735C139.015 76.906 139.157 77.1015 139.125 77.3095C139.096 77.4981 138.932 77.6326 138.748 77.6326ZM153.954 77.6133C153.771 77.6133 153.61 77.4816 153.578 77.2958C153.542 77.0878 153.681 76.8906 153.889 76.8547C154.887 76.6832 155.883 76.474 156.85 76.2324C157.055 76.1811 157.262 76.3054 157.313 76.5099C157.364 76.7145 157.24 76.922 157.036 76.9733C156.051 77.2195 155.036 77.4332 154.019 77.6076C153.998 77.611 153.975 77.6133 153.954 77.6133ZM132.779 76.3452C132.746 76.3452 132.711 76.3407 132.677 76.3316C131.695 76.0603 130.705 75.7577 129.737 75.4306C129.537 75.3633 129.429 75.1468 129.497 74.9467C129.564 74.7467 129.78 74.6395 129.98 74.7068C130.936 75.0288 131.911 75.328 132.88 75.5953C133.084 75.6511 133.203 75.8614 133.147 76.0649C133.1 76.2341 132.946 76.3452 132.779 76.3452ZM159.874 76.1275C159.714 76.1275 159.565 76.0267 159.512 75.8671C159.445 75.6671 159.552 75.4505 159.752 75.3833C160.71 75.0613 161.659 74.6982 162.574 74.3033C162.768 74.2195 162.993 74.309 163.076 74.5028C163.16 74.6965 163.07 74.9211 162.876 75.0043C161.942 75.4072 160.972 75.7782 159.996 76.1065C159.955 76.1201 159.914 76.1264 159.874 76.1264L159.874 76.1275ZM165.475 73.7089C165.339 73.7089 165.207 73.636 165.138 73.5077C165.039 73.322 165.108 73.0906 165.294 72.9908C166.171 72.5195 167.04 71.9958 167.877 71.4339C168.052 71.3165 168.289 71.3632 168.407 71.5382C168.524 71.7131 168.477 71.9502 168.302 72.0682C167.445 72.6438 166.555 73.1801 165.656 73.6633C165.598 73.6941 165.536 73.7089 165.475 73.7089ZM170.542 70.3135C170.431 70.3135 170.321 70.2656 170.246 70.1733C170.112 70.0103 170.136 69.7692 170.3 69.6359C171.074 69.0027 171.83 68.324 172.546 67.6196C172.696 67.472 172.938 67.4737 173.086 67.6236C173.234 67.774 173.231 68.0157 173.082 68.1633C172.349 68.8848 171.576 69.5789 170.783 70.2269C170.713 70.285 170.627 70.3135 170.542 70.3135ZM174.889 66.0336C174.802 66.0336 174.715 66.0039 174.643 65.9435C174.482 65.8073 174.462 65.5663 174.598 65.4055C175.248 64.6368 175.867 63.8315 176.438 63.012C176.559 62.8393 176.797 62.7966 176.97 62.9174C177.143 63.0382 177.185 63.2759 177.065 63.4491C176.48 64.288 175.846 65.1121 175.182 65.8985C175.106 65.988 174.998 66.0336 174.889 66.0336ZM178.378 61.0276C178.314 61.0276 178.25 61.0117 178.191 60.978C178.007 60.8743 177.942 60.6412 178.046 60.4577C178.543 59.5784 178.998 58.6717 179.4 57.7621C179.485 57.5695 179.71 57.4817 179.903 57.5672C180.096 57.6521 180.184 57.8778 180.098 58.0704C179.687 59.0028 179.22 59.9323 178.71 60.8333C178.64 60.9575 178.512 61.0276 178.378 61.0276ZM180.838 55.4449C180.8 55.4449 180.76 55.4392 180.721 55.4261C180.52 55.3612 180.41 55.1463 180.475 54.9457C180.785 53.9837 181.044 53.0046 181.244 52.0341C181.287 51.8278 181.489 51.6945 181.695 51.7372C181.901 51.7799 182.035 51.9817 181.992 52.188C181.786 53.1853 181.521 54.1923 181.201 55.1799C181.149 55.3418 181 55.4449 180.838 55.4449ZM182.063 49.4736C182.051 49.4736 182.04 49.4736 182.029 49.4719C181.819 49.4536 181.664 49.2684 181.682 49.0581C181.746 48.3315 181.778 47.5969 181.778 46.8748C181.778 46.6013 181.774 46.3272 181.765 46.0531C181.757 45.8422 181.922 45.6655 182.133 45.6587C182.34 45.6433 182.521 45.8166 182.528 46.0274C182.537 46.3101 182.542 46.5928 182.542 46.8748C182.542 47.6191 182.508 48.376 182.443 49.1248C182.425 49.3237 182.259 49.4736 182.063 49.4736ZM63.578 48.2665H63.5735C62.5209 48.254 61.482 48.1868 60.4852 48.0659C60.2755 48.0409 60.1267 47.8505 60.1518 47.6408C60.1775 47.4316 60.3672 47.2818 60.577 47.3074C61.5464 47.4248 62.5573 47.4903 63.582 47.5023C63.7929 47.5046 63.9616 47.6778 63.9593 47.8887C63.957 48.0978 63.7872 48.2665 63.578 48.2665ZM66.6287 48.1583C66.4315 48.1583 66.2645 48.0067 66.2486 47.8066C66.232 47.5963 66.3887 47.4123 66.599 47.3957C67.5559 47.3194 68.5675 47.2003 69.6041 47.0413C69.8115 47.0088 70.007 47.1524 70.0395 47.361C70.0714 47.5695 69.9284 47.7645 69.7198 47.7964C68.6643 47.9577 67.6351 48.0796 66.6595 48.1571C66.6492 48.1577 66.6389 48.1583 66.6287 48.1583ZM57.5337 47.4949C57.5012 47.4949 57.4676 47.4909 57.4346 47.4818C56.435 47.2139 55.4473 46.8709 54.4985 46.4628C54.3047 46.3796 54.2152 46.1551 54.2984 45.9613C54.3816 45.7676 54.6062 45.6781 54.7999 45.7613C55.7152 46.1551 56.6686 46.4862 57.6323 46.7444C57.8358 46.7991 57.9566 47.0082 57.9019 47.2122C57.8563 47.3826 57.7024 47.4949 57.5337 47.4949ZM72.6661 47.2521C72.4889 47.2521 72.3305 47.1285 72.2929 46.9484C72.2495 46.7421 72.3823 46.5398 72.5886 46.4964C73.5142 46.3032 74.483 46.0804 75.5521 45.8154C75.7573 45.7653 75.9641 45.8895 76.0143 46.0941C76.065 46.2987 75.9402 46.5056 75.7356 46.5569C74.6579 46.8241 73.6794 47.0487 72.7448 47.2441C72.7186 47.2498 72.6924 47.2521 72.6661 47.2521ZM78.5993 45.7983C78.4312 45.7983 78.2768 45.6861 78.2312 45.5157C78.1765 45.3122 78.2967 45.1025 78.5002 45.0478C79.1356 44.8762 79.7693 44.7024 80.4008 44.5292C80.6042 44.4733 80.8145 44.593 80.8698 44.7959C80.9256 44.9993 80.806 45.2096 80.6031 45.2655C79.9705 45.4393 79.3356 45.6131 78.699 45.7852C78.666 45.7943 78.6324 45.7983 78.5993 45.7983ZM51.9419 45.0831C51.873 45.0831 51.8034 45.0649 51.7407 45.0255C50.8426 44.467 50.0003 43.8442 49.2383 43.1734C49.0799 43.0343 49.0645 42.7927 49.2041 42.6348C49.3438 42.477 49.5848 42.461 49.7427 42.6006C50.4733 43.2435 51.2814 43.8413 52.1442 44.3776C52.3232 44.4887 52.3785 44.7241 52.2668 44.9036C52.1944 45.0198 52.0696 45.0831 51.9419 45.0831ZM181.852 43.3837C181.668 43.3837 181.506 43.2498 181.476 43.0623C181.322 42.1014 181.113 41.1383 180.838 40.1176C180.784 39.9142 180.904 39.7044 181.108 39.6497C181.312 39.5956 181.521 39.7153 181.576 39.9193C181.858 40.9662 182.072 41.9544 182.23 42.942C182.263 43.15 182.121 43.3461 181.913 43.3791C181.892 43.3825 181.872 43.3837 181.852 43.3837ZM47.3987 41.0505C47.2847 41.0505 47.1719 40.9998 47.0967 40.9024C46.4436 40.0583 45.8925 39.1608 45.4582 38.2347C45.3688 38.0438 45.4508 37.8164 45.6417 37.7269C45.8332 37.638 46.06 37.7195 46.1495 37.9104C46.5598 38.7858 47.0813 39.6349 47.7002 40.4345C47.829 40.6015 47.7988 40.8408 47.6318 40.9702C47.5623 41.0237 47.4808 41.0505 47.3987 41.0505ZM180.293 37.487C180.136 37.487 179.989 37.389 179.933 37.2328C179.625 36.362 179.268 35.4354 178.843 34.3999C178.762 34.205 178.856 33.9816 179.051 33.9018C179.246 33.8226 179.469 33.9149 179.549 34.1098C179.978 35.1567 180.34 36.0947 180.653 36.9775C180.723 37.1764 180.619 37.3947 180.42 37.4648C180.378 37.4796 180.335 37.487 180.293 37.487ZM44.8501 35.5619C44.6712 35.5619 44.5116 35.4354 44.4757 35.253L44.4626 35.1863C44.262 34.148 44.1577 33.1261 44.152 32.1482C44.1509 31.9373 44.3207 31.7658 44.5316 31.7641H44.5339C44.7436 31.7641 44.9145 31.9339 44.9157 32.1436C44.9208 33.0743 45.0205 34.0488 45.212 35.0399L45.2251 35.106C45.2656 35.3128 45.1305 35.5134 44.9237 35.5539C44.8992 35.5585 44.8741 35.5619 44.8501 35.5619ZM153.476 31.8331C153.267 31.8331 153.096 31.6649 153.094 31.4558C153.091 31.2449 153.26 31.0722 153.471 31.0694C154.488 31.058 155.509 31.0244 156.507 30.9708C156.716 30.9554 156.898 31.1207 156.909 31.3315C156.921 31.5418 156.759 31.7219 156.548 31.7333C155.54 31.788 154.508 31.8217 153.479 31.8331H153.476ZM177.998 31.8268C177.851 31.8268 177.711 31.7413 177.648 31.5977L177.226 30.6334C176.957 30.0219 176.689 29.4099 176.424 28.7972C176.34 28.6035 176.43 28.3789 176.623 28.2951C176.817 28.2114 177.041 28.3008 177.125 28.494C177.389 29.1055 177.657 29.7165 177.925 30.3268L178.348 31.2917C178.432 31.4848 178.344 31.71 178.151 31.7943C178.101 31.816 178.049 31.8268 177.998 31.8268ZM150.421 31.804C150.417 31.804 150.413 31.804 150.409 31.804C149.399 31.7738 148.368 31.7225 147.344 31.6513C147.134 31.6364 146.975 31.4541 146.99 31.2438C147.004 31.0335 147.184 30.8739 147.397 30.8893C148.411 30.9594 149.432 31.0107 150.433 31.0403C150.644 31.0466 150.81 31.2227 150.803 31.4336C150.797 31.6404 150.627 31.804 150.421 31.804ZM159.573 31.4997C159.379 31.4997 159.213 31.3526 159.193 31.1554C159.172 30.9457 159.325 30.7588 159.535 30.7377C160.546 30.6374 161.559 30.512 162.548 30.3661C162.756 30.3359 162.951 30.4796 162.982 30.6881C163.013 30.8967 162.869 31.0911 162.66 31.1218C161.659 31.2694 160.633 31.3965 159.611 31.498C159.598 31.4991 159.585 31.4997 159.573 31.4997ZM144.329 31.3817C144.315 31.3817 144.301 31.3811 144.287 31.3794C143.277 31.2706 142.253 31.1406 141.243 30.993C141.034 30.9628 140.889 30.7691 140.92 30.5599C140.95 30.3513 141.146 30.2066 141.353 30.2373C142.354 30.3832 143.369 30.512 144.369 30.6203C144.579 30.6431 144.73 30.8312 144.708 31.0409C144.687 31.2364 144.521 31.3817 144.329 31.3817ZM165.613 30.6055C165.434 30.6055 165.275 30.4796 165.239 30.2983C165.198 30.0915 165.332 29.8903 165.538 29.8493C166.534 29.6515 167.529 29.4258 168.497 29.1796C168.703 29.1272 168.909 29.2514 168.962 29.4555C169.014 29.66 168.891 29.8675 168.686 29.9199C167.705 30.1695 166.696 30.3981 165.688 30.5987C165.663 30.6038 165.638 30.6061 165.614 30.6061L165.613 30.6055ZM138.284 30.5029C138.261 30.5029 138.238 30.5006 138.215 30.4966C137.225 30.3166 136.213 30.1165 135.207 29.9017C135.001 29.8578 134.869 29.6549 134.913 29.4486C134.957 29.2423 135.161 29.1118 135.367 29.1551C136.365 29.3683 137.369 29.5672 138.351 29.7455C138.559 29.7831 138.696 29.982 138.659 30.1895C138.625 30.3741 138.464 30.5029 138.284 30.5029ZM44.8598 29.5033C44.8313 29.5033 44.8028 29.4999 44.7744 29.4936C44.5686 29.4463 44.4404 29.2417 44.4877 29.036C44.7219 28.0142 45.0849 27.0231 45.5659 26.0914C45.6628 25.9039 45.8936 25.8309 46.08 25.9272C46.2675 26.0241 46.341 26.2544 46.2441 26.4413C45.7928 27.3166 45.452 28.2473 45.2314 29.207C45.1909 29.3836 45.0337 29.5033 44.8598 29.5033ZM132.31 29.2281C132.28 29.2281 132.25 29.2246 132.22 29.2172C131.242 28.979 130.244 28.7209 129.252 28.4513C129.049 28.396 128.928 28.1863 128.984 27.9828C129.04 27.7794 129.25 27.6586 129.453 27.715C130.438 27.9834 131.43 28.2393 132.4 28.4758C132.605 28.526 132.731 28.7323 132.681 28.9374C132.638 29.1118 132.482 29.2281 132.31 29.2281ZM171.529 29.0976C171.366 29.0976 171.216 28.9933 171.164 28.8303C171.101 28.6291 171.213 28.4148 171.414 28.3516C172.381 28.0478 173.345 27.7139 174.278 27.3594C174.476 27.2847 174.696 27.3839 174.771 27.5811C174.845 27.7783 174.746 27.9988 174.549 28.0735C173.602 28.4331 172.624 28.7716 171.643 29.0805C171.604 29.0924 171.566 29.0976 171.529 29.0976ZM126.415 27.6272C126.379 27.6272 126.342 27.6221 126.306 27.6113C125.347 27.3252 124.363 27.0203 123.381 26.7034C123.18 26.639 123.069 26.4236 123.134 26.223C123.199 26.0224 123.414 25.9124 123.615 25.9768C124.592 26.2914 125.571 26.5952 126.524 26.8795C126.726 26.9399 126.841 27.1525 126.781 27.3548C126.731 27.5207 126.58 27.6272 126.415 27.6272ZM57.0875 27.5549L56.8151 27.5537C56.6042 27.552 56.4344 27.3793 56.4361 27.169C56.4378 26.9593 56.6088 26.7901 56.8179 26.7901H56.8214L57.0875 26.7912C57.9976 26.7912 58.922 26.749 59.8338 26.6664C60.0453 26.6447 60.2293 26.802 60.2487 27.0123C60.2681 27.222 60.1131 27.4078 59.9028 27.4272C58.9681 27.5121 58.0204 27.5549 57.0875 27.5549ZM53.7707 27.3736C53.757 27.3736 53.7428 27.3731 53.7285 27.3713C52.7073 27.2591 51.6803 27.0932 50.6762 26.8778C50.4699 26.8339 50.3388 26.6305 50.3827 26.4248C50.4271 26.2184 50.63 26.0868 50.8358 26.1313C51.8148 26.341 52.8161 26.5028 53.8117 26.6122C54.0215 26.6356 54.1725 26.8237 54.1497 27.0334C54.128 27.2289 53.9628 27.3736 53.7707 27.3736ZM62.8913 27.0055C62.7112 27.0055 62.5517 26.8778 62.5163 26.6949C62.477 26.4874 62.6132 26.288 62.8201 26.2487C63.8003 26.0623 64.7873 25.8258 65.7533 25.5454C65.9556 25.4861 66.1676 25.603 66.2263 25.8058C66.285 26.0082 66.1688 26.2202 65.9659 26.2789C64.9766 26.5661 63.9656 26.8083 62.962 26.9986C62.938 27.0032 62.9141 27.0055 62.8902 27.0055H62.8913ZM177.235 26.9291C177.09 26.9291 176.951 26.8453 176.887 26.704C176.8 26.5119 176.886 26.2857 177.078 26.1991C178 25.7831 178.916 25.3345 179.798 24.8667C179.985 24.7675 180.216 24.8387 180.315 25.0251C180.413 25.2114 180.343 25.4428 180.156 25.5414C179.259 26.0173 178.329 26.4726 177.392 26.8949C177.341 26.9177 177.287 26.9291 177.235 26.9291ZM175.599 26.2088C175.447 26.2088 175.304 26.117 175.244 25.9671L175.115 25.6383C174.776 24.7686 174.468 23.9052 174.199 23.0715C174.134 22.8709 174.244 22.6555 174.445 22.5911C174.645 22.5267 174.861 22.6367 174.925 22.8373C175.19 23.6568 175.492 24.5059 175.826 25.3613L175.954 25.6867C176.031 25.8828 175.935 26.1045 175.739 26.1825C175.693 26.2008 175.646 26.2088 175.599 26.2088ZM47.8068 26.0971C47.768 26.0971 47.7281 26.0914 47.6894 26.0783C46.7137 25.7631 45.7409 25.3944 44.7989 24.9812C44.6057 24.8963 44.5173 24.6718 44.6022 24.4786C44.6872 24.2854 44.9117 24.197 45.1049 24.2819C46.0241 24.6843 46.9724 25.0445 47.9242 25.3516C48.1248 25.4166 48.2348 25.6315 48.1704 25.8321C48.1179 25.9939 47.968 26.0971 47.8068 26.0971ZM120.599 25.7574C120.558 25.7574 120.516 25.7506 120.475 25.7363C119.533 25.4126 118.562 25.0695 117.589 24.7162C117.391 24.6444 117.288 24.425 117.361 24.2272C117.433 24.0289 117.651 23.9269 117.85 23.9987C118.818 24.3503 119.785 24.6923 120.723 25.0148C120.923 25.0832 121.029 25.3004 120.96 25.4998C120.905 25.6582 120.758 25.7574 120.599 25.7574ZM68.7498 25.3083C68.5977 25.3083 68.4535 25.2166 68.3942 25.0661C68.3173 24.8695 68.4136 24.6484 68.6102 24.5709C69.2451 24.3213 69.8839 24.0472 70.5085 23.7571C70.8408 23.6026 71.1103 23.4698 71.3577 23.3393C71.544 23.2408 71.7748 23.3126 71.8734 23.4989C71.972 23.6853 71.9002 23.9166 71.7138 24.0147C71.4551 24.1509 71.1747 24.2888 70.8305 24.4489C70.1917 24.7458 69.5386 25.0262 68.8895 25.2815C68.8439 25.2998 68.7966 25.3083 68.7498 25.3083ZM47.6101 24.1281C47.5224 24.1281 47.4341 24.0979 47.3617 24.0363C47.2015 23.899 47.1827 23.6579 47.3201 23.4978C47.972 22.737 48.7311 22.0115 49.5763 21.3407C49.741 21.2096 49.9815 21.237 50.1126 21.4028C50.2436 21.5681 50.2157 21.808 50.0504 21.9391C49.2435 22.5791 48.5203 23.2704 47.8997 23.9947C47.8239 24.0831 47.7179 24.1281 47.6101 24.1281ZM182.628 24.0677C182.5 24.0677 182.375 24.0033 182.302 23.8864C182.192 23.7069 182.247 23.4716 182.427 23.361C182.839 23.1063 183.251 22.843 183.651 22.5774C184.101 22.2799 184.535 21.9784 184.944 21.6815C185.114 21.5579 185.353 21.5955 185.477 21.7664C185.601 21.9368 185.563 22.1756 185.392 22.2999C184.975 22.6025 184.531 22.9102 184.073 23.214C183.666 23.4841 183.247 23.7519 182.827 24.0112C182.765 24.05 182.696 24.0677 182.628 24.0677ZM114.856 23.675C114.811 23.675 114.765 23.667 114.72 23.6499C113.799 23.3 112.84 22.9284 111.867 22.5449C111.671 22.4674 111.575 22.2457 111.652 22.0497C111.73 21.8536 111.951 21.7567 112.147 21.8343C113.117 22.2167 114.074 22.5871 114.991 22.9359C115.188 23.0105 115.287 23.2311 115.212 23.4282C115.154 23.581 115.01 23.675 114.856 23.675ZM42.2172 23.6516C42.154 23.6516 42.0901 23.6363 42.0309 23.6026C41.2991 23.1923 40.5708 22.7455 39.8664 22.2736C39.7131 22.1711 39.5604 22.0656 39.4088 21.9573C39.2373 21.8348 39.1974 21.5966 39.3199 21.4245C39.4424 21.253 39.6806 21.2131 39.8527 21.3356C39.9981 21.4393 40.144 21.5402 40.291 21.6388C40.9794 22.0993 41.6901 22.5358 42.4042 22.9364C42.5882 23.0396 42.6538 23.2721 42.5506 23.4562C42.4805 23.581 42.3506 23.6516 42.2172 23.6516ZM73.9285 22.199C73.847 22.199 73.7649 22.1728 73.6954 22.1192C73.5284 21.9904 73.4976 21.7505 73.6264 21.5835C74.1365 20.923 74.4174 20.1673 74.4174 19.4567C74.4174 19.3119 74.4055 19.1677 74.3821 19.0281C74.3468 18.8201 74.487 18.6229 74.695 18.5881C74.903 18.5539 75.1002 18.693 75.1349 18.901C75.1657 19.0822 75.1811 19.2692 75.1811 19.4567C75.1811 20.3354 74.8437 21.2564 74.2311 22.0502C74.1558 22.1477 74.043 22.199 73.9285 22.199ZM109.172 21.4359C109.124 21.4359 109.076 21.4268 109.028 21.408C108.085 21.0244 107.142 20.6363 106.2 20.2442C106.006 20.1633 105.914 19.9399 105.995 19.745C106.076 19.5501 106.299 19.4578 106.494 19.5393C107.433 19.9297 108.373 20.3172 109.316 20.7002C109.512 20.7794 109.606 21.0022 109.526 21.1977C109.465 21.3459 109.323 21.4359 109.172 21.4359ZM187.547 20.4585C187.443 20.4585 187.339 20.4158 187.263 20.332C187.122 20.1753 187.135 19.9337 187.292 19.7929C188.069 19.0931 188.771 18.3687 189.379 17.641C189.514 17.4791 189.754 17.4575 189.917 17.5925C190.079 17.7276 190.1 17.9687 189.965 18.1305C189.335 18.8862 188.607 19.6367 187.803 20.3611C187.73 20.4266 187.638 20.4585 187.547 20.4585ZM173.742 20.3936C173.568 20.3936 173.411 20.2745 173.37 20.0978C173.128 19.0572 172.944 18.0331 172.824 17.0523C172.798 16.8431 172.947 16.6522 173.156 16.6266C173.364 16.5998 173.556 16.7497 173.582 16.9588C173.699 17.9122 173.878 18.9101 174.114 19.9245C174.162 20.1297 174.034 20.3349 173.828 20.3827C173.799 20.3896 173.77 20.3936 173.742 20.3936ZM52.346 20.3189C52.2132 20.3189 52.0844 20.2499 52.0143 20.1263C51.9094 19.9433 51.9733 19.7097 52.1562 19.6054C53.0184 19.1124 53.9542 18.652 54.9373 18.2371C55.1316 18.155 55.3556 18.2462 55.4377 18.4405C55.5197 18.6349 55.4285 18.8588 55.2342 18.9409C54.2791 19.3438 53.3712 19.7906 52.5352 20.2688C52.4753 20.3029 52.4104 20.3189 52.346 20.3189ZM37.2996 20.0579C37.2022 20.0579 37.1047 20.0208 37.0301 19.9468C36.2749 19.1939 35.599 18.3909 35.0212 17.56C34.9009 17.3868 34.9437 17.1491 35.1169 17.0289C35.2902 16.9087 35.5278 16.9514 35.6486 17.1246C36.1997 17.9179 36.846 18.6856 37.5692 19.4065C37.7185 19.5552 37.7191 19.7969 37.5703 19.9468C37.4957 20.0214 37.3976 20.059 37.2996 20.059V20.0579ZM103.531 19.0908C103.481 19.0908 103.43 19.0811 103.382 19.0606C102.443 18.6634 101.506 18.2644 100.569 17.8638C100.376 17.7812 100.286 17.5566 100.368 17.3629C100.451 17.1691 100.676 17.0791 100.87 17.1617C101.805 17.5618 102.742 17.9607 103.679 18.3573C103.874 18.4394 103.964 18.6634 103.882 18.8577C103.821 19.0036 103.679 19.0908 103.531 19.0908ZM57.9566 17.9271C57.7936 17.9271 57.6426 17.8222 57.5919 17.6581C57.5292 17.4563 57.642 17.2426 57.8432 17.1805C58.804 16.8824 59.8093 16.618 60.8311 16.3946C61.038 16.3496 61.2409 16.4801 61.2859 16.6858C61.3309 16.8921 61.2004 17.0956 60.9947 17.1406C59.994 17.3594 59.0098 17.6182 58.0694 17.91C58.0318 17.9214 57.9942 17.9271 57.9566 17.9271ZM72.9494 17.0209C72.8873 17.0209 72.8246 17.0055 72.7664 16.9742C72.0022 16.5565 71.0197 16.3023 70.0007 16.2584C69.7899 16.2493 69.6263 16.0715 69.6354 15.8606C69.6446 15.6498 69.8201 15.4873 70.0332 15.4953C71.1667 15.5438 72.2678 15.8304 73.1329 16.304C73.3181 16.4049 73.3859 16.6368 73.2845 16.822C73.215 16.9491 73.0844 17.0209 72.9494 17.0209ZM97.9119 16.6915C97.8618 16.6915 97.8105 16.6818 97.7615 16.6607L94.9547 15.456C94.761 15.3728 94.6709 15.1482 94.7541 14.9545C94.8373 14.7607 95.0619 14.6712 95.2556 14.7539L98.0629 15.9586C98.2567 16.0418 98.3462 16.2664 98.263 16.4601C98.2009 16.6049 98.0601 16.6915 97.9119 16.6915ZM63.92 16.6146C63.7325 16.6146 63.5683 16.4761 63.5421 16.2852C63.5131 16.076 63.659 15.8834 63.8681 15.8549C64.8899 15.7142 65.9232 15.6116 66.9393 15.5506C67.1461 15.5409 67.3308 15.6982 67.3433 15.9091C67.3559 16.1193 67.1952 16.3006 66.9849 16.3131C65.9881 16.373 64.9748 16.4733 63.9724 16.6112C63.9547 16.6134 63.9371 16.6146 63.92 16.6146ZM191.408 15.7597C191.345 15.7597 191.281 15.7444 191.222 15.7113C191.038 15.6087 190.972 15.3756 191.075 15.1916C191.337 14.7231 191.571 14.2404 191.772 13.7571C191.945 13.3411 192.094 12.9063 192.216 12.4646C192.273 12.2612 192.484 12.1421 192.686 12.1985C192.889 12.2549 193.009 12.4652 192.952 12.6681C192.822 13.1405 192.661 13.605 192.477 14.0495C192.265 14.5595 192.018 15.069 191.742 15.5637C191.672 15.6891 191.542 15.7597 191.408 15.7597ZM33.874 15.0497C33.723 15.0497 33.5799 14.959 33.5195 14.8103C33.1069 13.7856 32.8533 12.7547 32.7661 11.746C32.7479 11.5357 32.9034 11.351 33.1137 11.3328C33.324 11.3174 33.5092 11.4701 33.5269 11.6804C33.6073 12.6139 33.8432 13.5708 34.2273 14.5254C34.306 14.7208 34.2114 14.9437 34.0159 15.0223C33.9691 15.0411 33.9213 15.0497 33.874 15.0497ZM173.028 14.3401H173.023C172.813 14.3373 172.644 14.1646 172.646 13.9537C172.659 12.8823 172.757 11.8389 172.938 10.8524C172.976 10.6449 173.174 10.5082 173.382 10.5452C173.589 10.5834 173.727 10.7817 173.689 10.9892C173.516 11.9335 173.422 12.9342 173.41 13.9629C173.407 14.172 173.237 14.3401 173.028 14.3401ZM92.2962 14.2871C92.2466 14.2871 92.1959 14.2774 92.1469 14.2569C91.2111 13.8591 90.273 13.4636 89.3344 13.071C89.1401 12.9895 89.0483 12.7661 89.1298 12.5712C89.2113 12.3769 89.4353 12.2851 89.6296 12.3666C90.57 12.7598 91.5086 13.1565 92.446 13.5543C92.6398 13.6369 92.7304 13.8609 92.6484 14.0552C92.5868 14.2005 92.4449 14.2871 92.2962 14.2871ZM86.6593 11.9318C86.6109 11.9318 86.5619 11.9226 86.5146 11.9033C85.5731 11.518 84.6305 11.1368 83.6856 10.7606C83.4896 10.6826 83.3938 10.4609 83.4719 10.2648C83.55 10.0688 83.7717 9.97303 83.9677 10.0511C84.9149 10.4278 85.8603 10.8102 86.8035 11.1966C86.9984 11.2764 87.0919 11.4998 87.0121 11.6947C86.9517 11.8423 86.8098 11.9318 86.6593 11.9318ZM193.013 9.932H193.008C192.797 9.92915 192.628 9.7559 192.631 9.54504L192.632 9.40941C192.632 8.44572 192.509 7.51109 192.265 6.63117C192.208 6.42772 192.327 6.21743 192.531 6.16158C192.733 6.10516 192.944 6.22427 193.001 6.42772C193.263 7.37374 193.395 8.37676 193.396 9.40941V9.5553C193.392 9.76445 193.221 9.932 193.013 9.932ZM80.982 9.67441C80.9365 9.67441 80.8903 9.66643 80.8453 9.64876C79.8793 9.27776 78.919 8.91645 77.9912 8.57451C77.7935 8.50157 77.692 8.28216 77.765 8.0844C77.8379 7.88665 78.0579 7.78521 78.2551 7.85815C79.1863 8.20066 80.1494 8.56369 81.1194 8.93583C81.316 9.01162 81.4146 9.23217 81.3388 9.42935C81.2807 9.58095 81.1359 9.67441 80.982 9.67441ZM33.4232 9.06918C33.389 9.06918 33.3548 9.06462 33.32 9.05493C33.1172 8.99851 32.998 8.78765 33.055 8.58477C33.0733 8.5198 33.0921 8.4554 33.112 8.39044C33.3964 7.45638 33.8461 6.56221 34.4473 5.73416C34.571 5.56376 34.8097 5.52501 34.9807 5.64924C35.1517 5.77291 35.1893 6.0117 35.0656 6.18267C34.514 6.94234 34.1025 7.7607 33.8426 8.61327C33.8244 8.67253 33.8073 8.73123 33.7908 8.7905C33.7435 8.95919 33.5902 9.06918 33.4232 9.06918ZM174.15 8.36992C174.103 8.36992 174.055 8.36137 174.008 8.34257C173.812 8.26449 173.717 8.04223 173.795 7.84676C173.915 7.54585 174.046 7.24552 174.184 6.95487C174.491 6.31203 174.872 5.68629 175.317 5.09417C175.444 4.92548 175.683 4.89185 175.852 5.01894C176.021 5.14546 176.054 5.38538 175.927 5.5535C175.512 6.10459 175.158 6.68645 174.873 7.28313C174.742 7.55953 174.617 7.84391 174.504 8.12942C174.445 8.27874 174.302 8.36992 174.15 8.36992ZM75.2483 7.56637C75.2067 7.56637 75.164 7.55953 75.1224 7.54471C74.1484 7.20392 73.1773 6.87452 72.2364 6.56563C72.0358 6.49953 71.927 6.28411 71.9931 6.0835C72.0586 5.8829 72.2752 5.77405 72.4752 5.84016C73.4207 6.15075 74.3963 6.48186 75.3749 6.8238C75.5737 6.89332 75.6786 7.11102 75.6091 7.31049C75.5538 7.46778 75.4056 7.56637 75.2483 7.56637ZM69.4445 5.66121C69.4075 5.66121 69.3699 5.65551 69.3328 5.64469C68.3509 5.34492 67.3673 5.05655 66.4104 4.78813C66.2075 4.73114 66.089 4.52028 66.146 4.3174C66.203 4.11452 66.4144 3.99598 66.6167 4.05297C67.5798 4.3231 68.5686 4.61261 69.5568 4.91465C69.7585 4.9762 69.872 5.18991 69.8104 5.39165C69.7603 5.55635 69.6087 5.66178 69.4457 5.66178L69.4445 5.66121ZM36.895 4.17322C36.7799 4.17322 36.6665 4.12136 36.5912 4.02333C36.4636 3.85578 36.4955 3.61586 36.663 3.4882C37.4808 2.8636 38.3938 2.33189 39.3763 1.90675C39.5695 1.82297 39.7946 1.91187 39.8784 2.10564C39.9622 2.2994 39.8733 2.52394 39.6795 2.60772C38.754 3.00835 37.8952 3.50872 37.1264 4.09571C37.0568 4.14871 36.9759 4.17322 36.895 4.17322ZM191.349 4.15669C191.229 4.15669 191.111 4.10027 191.036 3.99484C190.709 3.53038 190.332 3.1058 189.916 2.73366C189.614 2.46353 189.288 2.21848 188.949 2.00648C188.77 1.89478 188.716 1.65941 188.827 1.48046C188.939 1.30152 189.174 1.24681 189.353 1.35908C189.729 1.59387 190.09 1.86514 190.425 2.16434C190.884 2.57523 191.299 3.04312 191.66 3.55488C191.782 3.72756 191.74 3.96577 191.568 4.08716C191.501 4.13389 191.425 4.15669 191.349 4.15669ZM63.5621 4.01536C63.5313 4.01536 63.5 4.01137 63.468 4.00339C62.4776 3.7532 61.4814 3.51556 60.5074 3.29843C60.3017 3.25284 60.1718 3.04824 60.2179 2.84251C60.2641 2.63678 60.4687 2.50741 60.6738 2.55301C61.6546 2.77185 62.6577 3.01063 63.6555 3.26309C63.8601 3.31495 63.9838 3.5224 63.9319 3.72699C63.8881 3.90024 63.733 4.01536 63.5621 4.01536ZM177.756 3.53095C177.644 3.53095 177.532 3.48136 177.457 3.38619C177.326 3.22092 177.354 2.981 177.519 2.84992C178.343 2.19739 179.244 1.64573 180.197 1.2109C180.388 1.12314 180.615 1.20748 180.703 1.39954C180.791 1.59159 180.706 1.81784 180.514 1.90561C179.617 2.31536 178.769 2.83453 177.993 3.44888C177.923 3.50416 177.839 3.53095 177.756 3.53095ZM57.6004 2.6875C57.5765 2.6875 57.5525 2.68522 57.528 2.68066C56.525 2.48861 55.5169 2.31194 54.5321 2.15636C54.3235 2.1233 54.1816 1.92783 54.2147 1.71982C54.2477 1.51124 54.4426 1.3682 54.6512 1.40239C55.6445 1.55911 56.6606 1.73749 57.6716 1.93068C57.8785 1.97057 58.0141 2.17004 57.9748 2.37748C57.9401 2.56041 57.7799 2.6875 57.6004 2.6875ZM42.4429 1.7466C42.2645 1.7466 42.105 1.62066 42.0691 1.43943C42.028 1.23256 42.162 1.03139 42.3688 0.990354C43.3433 0.79659 44.3538 0.679762 45.4588 0.63417C45.6702 0.622202 45.8475 0.789182 45.856 0.999473C45.8646 1.21033 45.701 1.38814 45.4901 1.39669C44.425 1.44114 43.4528 1.55284 42.5176 1.7392C42.4925 1.74433 42.468 1.7466 42.4429 1.7466ZM51.5681 1.73578C51.5527 1.73578 51.5373 1.73464 51.5213 1.73293L51.4045 1.71868C50.3154 1.58646 49.3666 1.49585 48.5032 1.44114C48.2929 1.42803 48.1327 1.24624 48.1464 1.03595C48.1601 0.825654 48.3402 0.666085 48.5516 0.679192C49.4298 0.734472 50.3929 0.826795 51.4963 0.96072L51.6131 0.974968C51.8228 1.00061 51.9716 1.19096 51.9459 1.40011C51.9225 1.59387 51.7584 1.73578 51.5681 1.73578ZM183.266 1.03823C183.082 1.03823 182.921 0.906009 182.889 0.719084C182.855 0.511072 182.995 0.314459 183.204 0.279696C184.287 0.099609 185.363 0.0893508 186.368 0.251201C186.576 0.284825 186.717 0.480868 186.684 0.68888C186.65 0.896891 186.454 1.0388 186.246 1.00517C185.324 0.85643 184.331 0.865547 183.329 1.03253C183.308 1.03595 183.287 1.03823 183.266 1.03823Z" fill="white"/>
<path d="M190.007 43.7287H208.139V115.508C208.139 117.923 206.178 119.884 203.763 119.884H194.383C191.968 119.884 190.007 117.923 190.007 115.508V43.7287Z" fill="white"/>
<path d="M199.073 120.158C193.923 120.158 189.733 115.968 189.733 110.818V43.7287C189.733 43.5777 189.856 43.4551 190.007 43.4551H208.139C208.29 43.4551 208.413 43.5777 208.413 43.7287V110.818C208.413 115.968 204.223 120.158 199.073 120.158H199.073ZM190.28 44.0022V110.818C190.28 115.666 194.225 119.611 199.073 119.611C203.921 119.611 207.865 115.667 207.865 110.818V44.0022H190.28H190.28Z" fill="black"/>
<path d="M199.072 117.515C195.379 117.515 192.375 114.511 192.375 110.818V46.0977H205.769V110.818C205.769 114.511 202.765 117.516 199.072 117.516L199.072 117.515Z" fill="#D8E5F3"/>
<path d="M199.072 117.515C195.374 117.515 192.375 114.517 192.375 110.818V54.9077H205.769V110.818C205.769 114.516 202.771 117.515 199.072 117.515H199.072Z" fill="#F57A3E"/>
<path d="M209.348 43.7287H188.798C187.83 43.7287 187.045 42.9439 187.045 41.9757C187.045 41.0074 187.83 40.2227 188.798 40.2227H209.348C210.316 40.2227 211.101 41.0074 211.101 41.9757C211.101 42.9439 210.316 43.7287 209.348 43.7287Z" fill="white"/>
<path d="M209.347 44.0022H188.797C187.679 44.0022 186.771 43.0933 186.771 41.9757C186.771 40.8581 187.679 39.9492 188.797 39.9492H209.347C210.464 39.9492 211.373 40.8581 211.373 41.9757C211.373 43.0933 210.464 44.0022 209.347 44.0022ZM188.797 40.4968C187.982 40.4968 187.318 41.1602 187.318 41.9763C187.318 42.7924 187.981 43.4557 188.797 43.4557H209.347C210.162 43.4557 210.826 42.7924 210.826 41.9763C210.826 41.1602 210.163 40.4968 209.347 40.4968H188.797Z" fill="black"/>
<path d="M199.072 73.8585C198.577 73.8585 198.175 73.4561 198.175 72.9615C198.175 72.4668 198.577 72.0645 199.072 72.0645C199.566 72.0645 199.969 72.4668 199.969 72.9615C199.969 73.4561 199.566 73.8585 199.072 73.8585ZM199.072 72.6116C198.879 72.6116 198.722 72.7683 198.722 72.9615C198.722 73.1547 198.879 73.3114 199.072 73.3114C199.265 73.3114 199.422 73.1547 199.422 72.9615C199.422 72.7683 199.265 72.6116 199.072 72.6116Z" fill="white"/>
<path d="M197.559 59.912C196.918 59.912 196.396 59.39 196.396 58.7483C196.396 58.1066 196.918 57.5846 197.559 57.5846C198.201 57.5846 198.722 58.1066 198.722 58.7483C198.722 59.39 198.2 59.912 197.559 59.912ZM197.559 58.1322C197.219 58.1322 196.943 58.4086 196.943 58.7489C196.943 59.0891 197.219 59.3655 197.559 59.3655C197.899 59.3655 198.176 59.0891 198.176 58.7489C198.176 58.4086 197.899 58.1322 197.559 58.1322Z" fill="white"/>
<path d="M222.973 63.3114H175.047V67.6631H222.973V63.3114Z" fill="#B4EAED"/>
<path d="M222.973 67.9367H175.047C174.987 67.9367 174.938 67.8142 174.938 67.6632V63.3114C174.938 63.1604 174.987 63.0379 175.047 63.0379H222.973C223.034 63.0379 223.083 63.1604 223.083 63.3114V67.6632C223.083 67.8142 223.034 67.9367 222.973 67.9367ZM175.157 67.3896H222.864V63.585H175.157V67.3896Z" fill="black"/>
<path d="M222.973 126.525H175.047V130.877H222.973V126.525Z" fill="#B4EAED"/>
<path d="M222.973 131.151H175.047C174.987 131.151 174.938 131.028 174.938 130.877V126.525C174.938 126.374 174.987 126.252 175.047 126.252H222.973C223.034 126.252 223.083 126.374 223.083 126.525V130.877C223.083 131.028 223.034 131.151 222.973 131.151ZM175.157 130.603H222.864V126.799H175.157V130.603Z" fill="black"/>
<path d="M221.61 67.6632H219.568V126.525H221.61V67.6632Z" fill="#B4EAED"/>
<path d="M221.611 126.799H219.57C219.509 126.799 219.46 126.676 219.46 126.525V67.6637C219.46 67.5127 219.509 67.3902 219.57 67.3902H221.611C221.672 67.3902 221.721 67.5127 221.721 67.6637V126.525C221.721 126.676 221.672 126.799 221.611 126.799ZM219.68 126.252H221.501V67.9373H219.68V126.252Z" fill="black"/>
<path d="M178.643 67.6632H176.602V126.525H178.643V67.6632Z" fill="#B4EAED"/>
<path d="M178.643 126.799H176.601C176.54 126.799 176.491 126.676 176.491 126.525V67.6637C176.491 67.5127 176.54 67.3902 176.601 67.3902H178.643C178.704 67.3902 178.753 67.5127 178.753 67.6637V126.525C178.753 126.676 178.704 126.799 178.643 126.799ZM176.711 126.252H178.533V67.9373H176.711V126.252Z" fill="black"/>
<path d="M178.104 119.466C178.044 119.466 177.994 119.344 177.994 119.193V69.1461H177.035C176.974 69.1461 176.925 69.0235 176.925 68.8725C176.925 68.7215 176.974 68.599 177.035 68.599H178.104C178.165 68.599 178.214 68.7215 178.214 68.8725V119.193C178.214 119.344 178.165 119.466 178.104 119.466Z" fill="black"/>
<path d="M220.028 76.0783C219.967 76.0783 219.918 75.9557 219.918 75.8047V68.8725C219.918 68.7215 219.967 68.599 220.028 68.599H221.124C221.185 68.599 221.234 68.7215 221.234 68.8725C221.234 69.0235 221.185 69.1461 221.124 69.1461H220.138V75.8047C220.138 75.9557 220.089 76.0783 220.028 76.0783Z" fill="black"/>
<path d="M177.035 124.17C176.974 124.17 176.925 124.048 176.925 123.897V80.2931C176.925 80.1421 176.974 80.0196 177.035 80.0196C177.096 80.0196 177.145 80.1421 177.145 80.2931V123.897C177.145 124.048 177.096 124.17 177.035 124.17Z" fill="#D8E5F3"/>
<path d="M221.125 124.17C221.064 124.17 221.015 124.048 221.015 123.897V94.0322C221.015 93.8811 221.064 93.7586 221.125 93.7586C221.186 93.7586 221.235 93.8811 221.235 94.0322V123.897C221.235 124.048 221.186 124.17 221.125 124.17Z" fill="#D8E5F3"/>
<path d="M222.014 64.5577H205.53C205.469 64.5577 205.42 64.4352 205.42 64.2842C205.42 64.1332 205.469 64.0107 205.53 64.0107H222.014C222.074 64.0107 222.124 64.1332 222.124 64.2842C222.124 64.4352 222.075 64.5577 222.014 64.5577Z" fill="#D8E5F3"/>
<path d="M215.439 127.969H179.922C179.862 127.969 179.812 127.846 179.812 127.695C179.812 127.544 179.862 127.422 179.922 127.422H215.439C215.5 127.422 215.549 127.544 215.549 127.695C215.549 127.846 215.5 127.969 215.439 127.969Z" fill="#D8E5F3"/>
<path d="M58.678 95.9405C54.0897 95.7411 53.6908 62.2278 39.1283 53.0514H0.273438C14.836 62.2278 15.2349 95.7411 19.8231 95.9405H58.678Z" fill="white"/>
<path d="M21.4189 79.3834C32.7399 81.1786 36.7793 120.677 52.3392 123.669H91.1946C75.6347 120.676 71.5953 81.1786 60.2744 79.3834H21.4189Z" fill="white"/>
<path d="M21.4182 79.3834C15.758 78.4607 24.4107 96.14 19.8225 95.9405H33.1551C33.1551 95.9405 27.5354 80.3807 21.4182 79.3834Z" fill="#8ABAE7"/>
<path d="M52.3383 123.942C52.4626 123.942 52.5748 123.857 52.6045 123.731C52.6392 123.584 52.5481 123.437 52.401 123.403C44.1461 121.464 38.8341 108.8 34.1473 97.6274C29.9791 87.6913 26.3791 79.1098 21.4187 79.1098C20.6613 79.1098 20.08 79.36 19.6902 79.8535C18.514 81.3426 19.3443 84.8333 20.1478 88.2087C20.8522 91.1693 21.5806 94.2302 20.7508 95.2811C20.5456 95.541 20.2419 95.6675 19.823 95.6675C18.0124 95.6675 17.1057 91.2013 15.958 85.5468C13.9799 75.8021 10.9913 61.0761 0.442019 52.8359C0.322911 52.7425 0.150802 52.7636 0.0579095 52.8832C-0.0349833 53.0024 -0.0138971 53.1745 0.105211 53.2674C10.4955 61.3827 13.4601 75.9896 15.4223 85.6556C16.7131 92.0139 17.5651 96.2146 19.823 96.2146C20.4123 96.2146 20.8688 96.0146 21.1799 95.6208C22.1738 94.3625 21.4483 91.3118 20.6801 88.0828C19.9068 84.8338 19.1078 81.4743 20.1199 80.1932C20.4049 79.8324 20.8294 79.6575 21.4193 79.6575C26.016 79.6575 29.7209 88.4891 33.6435 97.8394C38.3811 109.133 43.7506 121.933 52.2768 123.935C52.2979 123.941 52.319 123.943 52.3395 123.943L52.3383 123.942Z" fill="black"/>
<path d="M25.045 79.5436H52.9693C53.1203 79.5436 53.2429 79.421 53.2429 79.27C53.2429 79.119 53.1203 78.9965 52.9693 78.9965H25.045C24.894 78.9965 24.7715 79.119 24.7715 79.27C24.7715 79.421 24.894 79.5436 25.045 79.5436Z" fill="black"/>
<path d="M38.0115 56.0724H8.00195L10.7819 59.8126H41.2878L38.0115 56.0724Z" fill="#D8E5F3"/>
<path d="M15.3693 63.228H39.6565C39.8075 63.228 39.93 63.1055 39.93 62.9545C39.93 62.8034 39.8075 62.6809 39.6565 62.6809H15.3693C15.2182 62.6809 15.0957 62.8034 15.0957 62.9545C15.0957 63.1055 15.2182 63.228 15.3693 63.228Z" fill="black"/>
<path d="M17.3312 66.918H41.6184C41.7694 66.918 41.8919 66.7955 41.8919 66.6445C41.8919 66.4935 41.7694 66.3709 41.6184 66.3709H17.3312C17.1801 66.3709 17.0576 66.4935 17.0576 66.6445C17.0576 66.7955 17.1801 66.918 17.3312 66.918Z" fill="black"/>
<path d="M18.9767 70.6087H43.2639C43.4149 70.6087 43.5374 70.4862 43.5374 70.3352C43.5374 70.1842 43.4149 70.0616 43.2639 70.0616H18.9767C18.8257 70.0616 18.7031 70.1842 18.7031 70.3352C18.7031 70.4862 18.8257 70.6087 18.9767 70.6087Z" fill="black"/>
<path d="M20.3068 74.2994H44.594C44.745 74.2994 44.8675 74.1768 44.8675 74.0258C44.8675 73.8748 44.745 73.7523 44.594 73.7523H20.3068C20.1557 73.7523 20.0332 73.8748 20.0332 74.0258C20.0332 74.1768 20.1557 74.2994 20.3068 74.2994Z" fill="black"/>
<path d="M33.589 82.1935H57.8762C58.0272 82.1935 58.1497 82.0709 58.1497 81.9199C58.1497 81.7689 58.0272 81.6464 57.8762 81.6464H33.589C33.438 81.6464 33.3154 81.7689 33.3154 81.9199C33.3154 82.0709 33.438 82.1935 33.589 82.1935Z" fill="black"/>
<path d="M36.2696 84.8749H60.5568C60.7079 84.8749 60.8304 84.7523 60.8304 84.6013C60.8304 84.4503 60.7079 84.3278 60.5568 84.3278H36.2696C36.1186 84.3278 35.9961 84.4503 35.9961 84.6013C35.9961 84.7523 36.1186 84.8749 36.2696 84.8749Z" fill="black"/>
<path d="M38.8605 88.5723H63.1477C63.2987 88.5723 63.4212 88.4498 63.4212 88.2988C63.4212 88.1477 63.2987 88.0252 63.1477 88.0252H38.8605C38.7094 88.0252 38.5869 88.1477 38.5869 88.2988C38.5869 88.4498 38.7094 88.5723 38.8605 88.5723Z" fill="black"/>
<path d="M41.5402 91.2538H65.8274C65.9784 91.2538 66.1009 91.1312 66.1009 90.9802C66.1009 90.8292 65.9784 90.7067 65.8274 90.7067H41.5402C41.3891 90.7067 41.2666 90.8292 41.2666 90.9802C41.2666 91.1312 41.3891 91.2538 41.5402 91.2538Z" fill="black"/>
<path d="M42.3712 95.0441H66.6584C66.8094 95.0441 66.932 94.9216 66.932 94.7706C66.932 94.6195 66.8094 94.497 66.6584 94.497H42.3712C42.2202 94.497 42.0977 94.6195 42.0977 94.7706C42.0977 94.9216 42.2202 95.0441 42.3712 95.0441Z" fill="black"/>
<path d="M45.0528 97.7248H69.34C69.4911 97.7248 69.6136 97.6023 69.6136 97.4513C69.6136 97.3003 69.4911 97.1777 69.34 97.1777H45.0528C44.9018 97.1777 44.7793 97.3003 44.7793 97.4513C44.7793 97.6023 44.9018 97.7248 45.0528 97.7248Z" fill="black"/>
<path d="M45.1456 102.07H69.4328C69.5838 102.07 69.7064 101.948 69.7064 101.797C69.7064 101.646 69.5838 101.523 69.4328 101.523H45.1456C44.9946 101.523 44.8721 101.646 44.8721 101.797C44.8721 101.948 44.9946 102.07 45.1456 102.07Z" fill="black"/>
<path d="M47.8273 104.751H72.1145C72.2655 104.751 72.388 104.628 72.388 104.477C72.388 104.326 72.2655 104.204 72.1145 104.204H47.8273C47.6762 104.204 47.5537 104.326 47.5537 104.477C47.5537 104.628 47.6762 104.751 47.8273 104.751Z" fill="black"/>
<path d="M43.8503 124.654H22.9277V95.6122H36.4525L43.8503 103.067V124.654Z" fill="#D8E5F3"/>
<path d="M43.851 125.099H22.9285C22.6829 125.099 22.4834 124.9 22.4834 124.653V95.6122C22.4834 95.3666 22.6823 95.1671 22.9285 95.1671H36.4532C36.5718 95.1671 36.6857 95.2144 36.7689 95.2988L44.1662 102.754C44.2488 102.837 44.2955 102.95 44.2955 103.068V124.654C44.2955 124.9 44.0961 125.099 43.8505 125.099L43.851 125.099ZM23.3736 124.208H43.4059V103.25L36.268 96.0573H23.3736V124.209V124.208Z" fill="black"/>
<path d="M54.2284 101.457L38.9941 93.6244L27.3871 116.2L42.6214 124.032L54.2284 101.457Z" fill="white"/>
<path d="M42.6126 124.476C42.5442 124.476 42.4746 124.46 42.4091 124.426L27.1758 116.593C27.071 116.539 26.9917 116.445 26.9558 116.333C26.9199 116.221 26.9296 116.099 26.9838 115.993L38.592 93.4188C38.7042 93.1999 38.9726 93.1144 39.1909 93.2267L54.4242 101.06C54.5291 101.114 54.6083 101.208 54.6442 101.32C54.6801 101.432 54.6704 101.554 54.6163 101.659L43.0081 124.234C42.9289 124.387 42.7733 124.475 42.612 124.475L42.6126 124.476ZM27.9788 116.005L42.4211 123.431L53.6224 101.648L39.1801 94.2217L27.9788 116.005Z" fill="black"/>
<path d="M42.0218 92.5225H22.0635V124.654H42.0218V92.5225Z" fill="white"/>
<path d="M42.0225 125.099H22.0642C21.8186 125.099 21.6191 124.9 21.6191 124.654V92.5225C21.6191 92.2769 21.8186 92.0774 22.0642 92.0774H42.0225C42.2681 92.0774 42.4676 92.2763 42.4676 92.5225V124.654C42.4676 124.899 42.2681 125.099 42.0225 125.099ZM22.5093 124.209H41.5774V92.9676H22.5093V124.209Z" fill="black"/>
<path d="M39.9007 92.5225H19.9424V124.654H39.9007V92.5225Z" fill="white"/>
<path d="M39.9004 125.099H19.9422C19.6965 125.099 19.4971 124.9 19.4971 124.654V92.5224C19.4971 92.2767 19.696 92.0773 19.9422 92.0773H39.9004C40.1461 92.0773 40.3455 92.2762 40.3455 92.5224V124.654C40.3455 124.899 40.1461 125.099 39.9004 125.099ZM20.3872 124.208H39.4554V92.9674H20.3872V124.208Z" fill="black"/>
<path d="M37.3331 124.654H16.4111V95.6124H29.9359L37.3331 103.067V124.654Z" fill="#DEF9FF"/>
<path d="M37.3335 125.099C37.0878 125.099 36.8884 124.9 36.8884 124.654V103.251L29.7504 96.0569H16.4109C16.1653 96.0569 15.9658 95.858 15.9658 95.6118C15.9658 95.3656 16.1647 95.1667 16.4109 95.1667H29.9357C30.0542 95.1667 30.1682 95.214 30.2514 95.2983L37.6492 102.754C37.7318 102.837 37.778 102.95 37.778 103.067V124.654C37.778 124.899 37.5791 125.099 37.3329 125.099H37.3335Z" fill="black"/>
<path d="M99.7836 4.41037C94.0481 59.0479 171.929 50.8973 164.081 125.458H159.251C167.904 52.6075 94.4505 62.6701 93.1426 4.41037H99.7836Z" fill="#005B60"/>
<path d="M157.996 4.41037C163.732 59.0479 85.8503 50.8973 93.6989 125.458H98.5288C89.8755 52.6075 163.329 62.6701 164.637 4.41037H157.996Z" fill="#005B60"/>
<path d="M159.629 106.637H98.1514V107.046H159.629V106.637Z" fill="white"/>
<path d="M156.353 91.6857H101.426V92.0943H156.353V91.6857Z" fill="white"/>
<path d="M146.741 75.0317H111.039V75.4403H146.741V75.0317Z" fill="white"/>
<path d="M146.741 38.6644H111.039V39.073H146.741V38.6644Z" fill="white"/>
<path d="M156.353 22.6852H101.954V23.0938H156.353V22.6852Z" fill="white"/>
<path d="M108.524 26.3579C110.443 25.9263 111.65 24.0201 111.218 22.1002C110.787 20.1804 108.88 18.9739 106.961 19.4055C105.041 19.8371 103.834 21.7433 104.266 23.6632C104.697 25.5831 106.604 26.7895 108.524 26.3579Z" fill="white"/>
<path d="M120.572 22.8898C120.572 20.9219 118.977 19.3268 117.009 19.3268C115.041 19.3268 113.446 20.9219 113.446 22.8898C113.446 24.8576 115.041 26.4527 117.009 26.4527C118.977 26.4527 120.572 24.8576 120.572 22.8898Z" fill="white"/>
<path d="M125.2 75.2357C125.2 73.2679 123.605 71.6727 121.637 71.6727C119.669 71.6727 118.074 73.2679 118.074 75.2357C118.074 77.2036 119.669 78.7987 121.637 78.7987C123.605 78.7987 125.2 77.2036 125.2 75.2357Z" fill="white"/>
<path d="M112.402 94.4093C113.793 93.0179 113.793 90.7619 112.402 89.3705C111.011 87.9791 108.755 87.9791 107.363 89.3705C105.972 90.7619 105.972 93.0179 107.363 94.4093C108.755 95.8007 111.011 95.8007 112.402 94.4093Z" fill="white"/>
<path d="M120.572 91.8898C120.572 89.9219 118.977 88.3268 117.009 88.3268C115.041 88.3268 113.446 89.9219 113.446 91.8898C113.446 93.8576 115.041 95.4527 117.009 95.4527C118.977 95.4527 120.572 93.8576 120.572 91.8898Z" fill="white"/>
<path d="M124.106 107.272C124.346 105.318 122.956 103.541 121.003 103.302C119.05 103.062 117.273 104.451 117.033 106.404C116.794 108.358 118.183 110.135 120.136 110.375C122.089 110.614 123.867 109.225 124.106 107.272Z" fill="white"/>
<path d="M126.655 94.4093C128.046 93.0179 128.046 90.7619 126.655 89.3705C125.263 87.979 123.008 87.9791 121.616 89.3705C120.225 90.7619 120.225 93.0179 121.616 94.4093C123.008 95.8007 125.263 95.8007 126.655 94.4093Z" fill="white"/>
<path d="M144.208 107.647C144.657 105.731 143.468 103.814 141.552 103.365C139.636 102.916 137.719 104.105 137.27 106.021C136.821 107.937 138.01 109.854 139.926 110.303C141.842 110.752 143.759 109.563 144.208 107.647Z" fill="#C1D7EA"/>
<path d="M137.331 78.6549C139.219 78.1016 140.302 76.1223 139.748 74.2339C139.195 72.3455 137.216 71.2632 135.327 71.8164C133.439 72.3697 132.357 74.3491 132.91 76.2375C133.463 78.1259 135.443 79.2082 137.331 78.6549Z" fill="#C1D7EA"/>
<path d="M126.94 42.3802C128.882 42.0649 130.201 40.2347 129.886 38.2923C129.571 36.35 127.741 35.031 125.798 35.3463C123.856 35.6616 122.537 37.4917 122.852 39.4341C123.167 41.3764 124.998 42.6955 126.94 42.3802Z" fill="white"/>
<path d="M141.073 22.8898C141.073 20.9219 139.478 19.3268 137.51 19.3268C135.542 19.3268 133.947 20.9219 133.947 22.8898C133.947 24.8576 135.542 26.4527 137.51 26.4527C139.478 26.4527 141.073 24.8576 141.073 22.8898Z" fill="white"/>
<path d="M67.3718 39.945C67.8215 43.6795 66.1078 46.9576 63.5444 47.2665C60.9805 47.5753 58.5379 44.7977 58.0882 41.0632C57.6386 37.3286 59.3523 34.0506 61.9157 33.7417C64.479 33.4328 66.9222 36.2105 67.3718 39.945Z" fill="white"/>
<path d="M63.1582 47.5953C60.5897 47.5953 58.2286 44.7942 57.7841 41.0996C57.5595 39.2326 57.849 37.413 58.6007 35.9762C59.3718 34.5014 60.5361 33.6004 61.8788 33.4385C63.222 33.2767 64.5664 33.8762 65.6657 35.1254C66.7365 36.3427 67.45 38.0415 67.6752 39.9085C67.9003 41.7755 67.6102 43.5952 66.8591 45.0319C66.088 46.5068 64.9237 47.4078 63.581 47.5696C63.4403 47.5867 63.2989 47.5953 63.1593 47.5953H63.1582ZM62.3062 34.0238C62.1876 34.0238 62.0697 34.0306 61.9511 34.0449C60.8142 34.1817 59.8163 34.9681 59.1416 36.2589C58.4469 37.5873 58.1801 39.2805 58.3904 41.0261C58.8196 44.5874 61.1128 47.251 63.507 46.9627C64.6439 46.8259 65.6418 46.0394 66.3165 44.7486C67.0112 43.4202 67.2779 41.7271 67.0677 39.9815C66.8574 38.2359 66.1963 36.6544 65.2064 35.5289C64.3441 34.5487 63.3263 34.0238 62.3062 34.0238Z" fill="black"/>
<path d="M58.3859 47.0681C58.0166 48.3423 59.4864 49.8879 61.6691 50.5199C63.8512 51.1519 65.9199 50.6316 66.2886 49.3573C66.6579 48.083 65.1882 46.5375 63.0055 45.9055C60.8234 45.2735 58.7546 45.7938 58.3859 47.0681Z" fill="white"/>
<path d="M63.4921 51.0955C62.8794 51.0955 62.2297 51.0009 61.584 50.814C59.2036 50.1244 57.67 48.4415 58.0923 46.9831C58.3026 46.2582 58.9591 45.7231 59.941 45.4758C60.8648 45.2433 61.9835 45.2917 63.0903 45.6125C64.197 45.9334 65.1681 46.4902 65.8252 47.1809C66.5233 47.9149 66.7917 48.7185 66.582 49.4434C66.3717 50.1683 65.7152 50.704 64.7333 50.9507C64.348 51.0476 63.9297 51.0961 63.4921 51.0961V51.0955ZM58.6793 47.1535C58.363 48.2449 59.7712 49.6525 61.7539 50.227C62.758 50.5182 63.7633 50.5644 64.584 50.3581C65.3465 50.166 65.848 49.7808 65.995 49.273C66.1421 48.7652 65.9244 48.1719 65.3824 47.602C64.7994 46.9888 63.9246 46.4908 62.9205 46.2001C61.9163 45.9095 60.9116 45.8627 60.0904 46.069C59.3273 46.2611 58.8263 46.6463 58.6793 47.1535Z" fill="black"/>
<path d="M77.4607 51.7093L85.0722 53.3626C85.939 53.5506 86.8839 53.0206 87.1836 52.1777L91.8072 39.1608C92.1064 38.3185 91.6465 37.4824 90.7797 37.2944L83.1682 35.6411C82.3013 35.4531 81.3565 35.9831 81.0567 36.8259L76.4331 49.8429C76.1339 50.6852 76.5939 51.5212 77.4607 51.7093Z" fill="white"/>
<path d="M89.0695 39.9296C89.0479 39.9296 89.0262 39.9273 89.0046 39.9228L82.7944 38.5738C82.6292 38.5379 82.5249 38.3755 82.5608 38.2102C82.5967 38.0455 82.7597 37.9407 82.9244 37.9766L89.1345 39.3255C89.2998 39.3614 89.4041 39.5239 89.3682 39.6891C89.3374 39.8322 89.2103 39.9302 89.0695 39.9302V39.9296Z" fill="black"/>
<path d="M88.2775 42.1585C88.2559 42.1585 88.2342 42.1562 88.2126 42.1516L82.0024 40.8027C81.8377 40.7668 81.7329 40.6044 81.7688 40.4391C81.8047 40.2744 81.9677 40.1695 82.1324 40.2054L88.3425 41.5544C88.5072 41.5903 88.6121 41.7527 88.5762 41.918C88.5454 42.061 88.4183 42.159 88.2775 42.159V42.1585Z" fill="black"/>
<path d="M87.4865 44.3879C87.4649 44.3879 87.4432 44.3856 87.4216 44.3811L81.2114 43.0321C81.0462 42.9962 80.9419 42.8332 80.9778 42.6685C81.0137 42.5033 81.1761 42.3995 81.3414 42.4349L87.5515 43.7838C87.7168 43.8197 87.8211 43.9821 87.7852 44.1474C87.7544 44.2905 87.6273 44.3885 87.4865 44.3885V44.3879Z" fill="black"/>
<path d="M86.6955 46.6168C86.6738 46.6168 86.6522 46.6145 86.6305 46.61L80.4204 45.261C80.2557 45.2251 80.1508 45.0627 80.1867 44.8974C80.2226 44.7327 80.3856 44.6279 80.5503 44.6638L86.7605 46.0127C86.9257 46.0486 87.03 46.211 86.9941 46.3763C86.9633 46.5194 86.8363 46.6174 86.6955 46.6174V46.6168Z" fill="black"/>
<path d="M85.9025 48.8462C85.8809 48.8462 85.8592 48.844 85.8376 48.8394L79.6274 47.4905C79.4627 47.4546 79.3579 47.2921 79.3938 47.1269C79.4297 46.9622 79.5921 46.8573 79.7574 46.8932L85.9675 48.2422C86.1322 48.2781 86.2371 48.4405 86.2012 48.6057C86.1704 48.7488 86.0433 48.8468 85.9025 48.8468V48.8462Z" fill="black"/>
<path d="M85.4685 58.0151C87.5086 58.0151 89.1625 56.3612 89.1625 54.3211C89.1625 52.2809 87.5086 50.627 85.4685 50.627C83.4283 50.627 81.7744 52.2809 81.7744 54.3211C81.7744 56.3612 83.4283 58.0151 85.4685 58.0151Z" fill="white"/>
<path d="M85.4688 58.3212C83.2634 58.3212 81.4688 56.5266 81.4688 54.3211C81.4688 52.1156 83.2634 50.321 85.4688 50.321C87.6743 50.321 89.4689 52.1156 89.4689 54.3211C89.4689 56.5266 87.6743 58.3212 85.4688 58.3212ZM85.4688 50.9325C83.6002 50.9325 82.0802 52.4524 82.0802 54.3211C82.0802 56.1898 83.6002 57.7097 85.4688 57.7097C87.3375 57.7097 88.8574 56.1898 88.8574 54.3211C88.8574 52.4524 87.3375 50.9325 85.4688 50.9325Z" fill="black"/>
<path d="M72.1281 51.2941C73.8518 50.9478 74.9684 49.2697 74.6221 47.546C74.2758 45.8222 72.5977 44.7056 70.874 45.0519C69.1503 45.3982 68.0337 47.0763 68.38 48.8C68.7263 50.5238 70.4044 51.6404 72.1281 51.2941Z" fill="white"/>
<path d="M71.4992 51.6654C69.5753 51.6654 68.0098 50.0999 68.0098 48.1759C68.0098 46.2519 69.5753 44.6864 71.4992 44.6864C73.4232 44.6864 74.9887 46.2519 74.9887 48.1759C74.9887 50.0999 73.4232 51.6654 71.4992 51.6654ZM71.4992 45.2985C69.9121 45.2985 68.6213 46.5893 68.6213 48.1765C68.6213 49.7636 69.9121 51.0544 71.4992 51.0544C73.0864 51.0544 74.3772 49.7636 74.3772 48.1765C74.3772 46.5893 73.0864 45.2985 71.4992 45.2985Z" fill="black"/>
<path d="M78.2148 127.55V130.97H89.1141C89.1141 127.969 85.3539 129.2 84.5395 125.292L78.2154 127.55H78.2148Z" fill="white"/>
<path d="M89.1149 131.276H78.2156C78.0469 131.276 77.9102 131.139 77.9102 130.97V127.55C77.9102 127.42 77.9911 127.305 78.113 127.262L84.4372 125.004C84.5204 124.975 84.6127 124.982 84.6896 125.025C84.7666 125.068 84.8213 125.143 84.8395 125.23C85.2322 127.114 86.3298 127.697 87.3904 128.262C88.3888 128.792 89.4209 129.34 89.4209 130.97C89.4209 131.139 89.2841 131.276 89.1154 131.276H89.1149ZM78.5217 130.664H88.794C88.6846 129.641 88.0093 129.282 87.1037 128.801C86.0876 128.262 84.8372 127.597 84.3226 125.694L78.5222 127.765V130.664H78.5217Z" fill="black"/>
<path d="M52.3028 126.802L52.0293 130.97H62.023C62.8527 127.969 58.8903 129.819 59.1564 125.911L52.3028 126.802Z" fill="white"/>
<path d="M62.0237 131.276H52.0301C51.9457 131.276 51.8648 131.241 51.8072 131.179C51.7497 131.117 51.7201 131.034 51.7252 130.95L51.9987 126.781C52.0084 126.636 52.1195 126.517 52.2643 126.498L59.1179 125.607C59.2085 125.595 59.2997 125.625 59.3669 125.688C59.4336 125.751 59.4683 125.84 59.4626 125.931C59.3384 127.761 60.1659 128.146 61.0424 128.554C61.8591 128.935 62.7851 129.365 62.319 131.051C62.2825 131.183 62.1617 131.275 62.0243 131.275L62.0237 131.276ZM52.3561 130.664H61.7838C61.9918 129.672 61.5245 129.454 60.7837 129.109C59.9545 128.723 58.8363 128.202 58.8392 126.261L52.5926 127.072L52.3566 130.664H52.3561Z" fill="black"/>
<path d="M72.166 104.764L77.4763 128.546L85.5432 125.735L80.9014 104.947L72.166 104.764Z" fill="black"/>
<path d="M53.9243 104.764L51.8652 127.266L59.9686 126.338L62.2727 104.764H53.9243Z" fill="black"/>
<path d="M83.0682 107.997C83.0682 107.997 64.9433 113.769 52.5908 109.382C52.5908 109.382 53.9324 56.0524 54.7097 52.6775C56.1321 46.501 64.8384 46.6543 70.0233 49.7933C75.206 52.9305 83.0688 107.997 83.0688 107.997H83.0682Z" fill="white"/>
<path d="M63.5583 111.319C59.7554 111.319 55.8972 110.881 52.4887 109.67C52.3639 109.626 52.2824 109.507 52.2852 109.375C52.3399 107.196 53.6364 55.9755 54.4115 52.6091C54.8908 50.5273 56.2175 48.9732 58.248 48.1144C61.5204 46.7312 66.5394 47.3273 70.1816 49.5323C72.4088 50.8806 75.305 61.137 78.7899 80.0165C81.3744 94.0194 83.3513 107.817 83.3713 107.954C83.3924 108.101 83.3035 108.243 83.1616 108.288C83.0299 108.33 73.4864 111.319 63.5589 111.319H63.5583ZM52.9024 109.167C64.2342 113.064 80.5298 108.439 82.7284 107.781C82.4441 105.818 80.5759 93.0591 78.1881 80.1253C73.8888 56.8337 71.2889 50.9165 69.8648 50.0548C66.377 47.9434 61.5916 47.3638 58.4862 48.6774C56.6176 49.4673 55.4476 50.8362 55.0076 52.7459C54.2713 55.9424 52.9982 105.399 52.9024 109.167Z" fill="black"/>
<path d="M64.1943 57.826C64.1943 57.826 76.6306 71.4676 79.0549 69.8513C81.4792 68.2351 86.1917 59.3903 86.1917 59.3903C86.1917 59.3903 85.6993 54.4368 81.0815 54.3211L77.6262 59.7032L70.8741 50.716L64.1943 57.8254V57.826Z" fill="white"/>
<path d="M78.574 70.2833C76.7144 70.2833 73.156 67.1597 70.5054 64.6676C67.1237 61.4881 63.9989 58.0659 63.9676 58.0323C63.8536 57.9075 63.8627 57.7143 63.9875 57.6003C64.1124 57.4863 64.3055 57.4954 64.4195 57.6202C64.4503 57.6544 67.5619 61.0607 70.9266 64.2248C76.9242 69.8639 78.4897 69.861 78.8846 69.5977C81.0929 68.1257 85.3831 60.2457 85.8755 59.3328C85.8322 59.0342 85.6532 58.0294 85.0913 57.0321C84.2456 55.531 82.9519 54.7252 81.244 54.6346L77.8833 59.8696C77.8291 59.954 77.7374 60.0064 77.6371 60.0098C77.5357 60.0167 77.4416 59.9682 77.3812 59.8879L70.6285 50.9006C70.5271 50.7655 70.5544 50.5741 70.6895 50.4726C70.8246 50.3712 71.0161 50.3985 71.1175 50.5336L77.6057 59.1692L80.8234 54.157C80.8809 54.0675 80.9767 54.0134 81.0884 54.0168C85.9199 54.1376 86.4898 59.3094 86.495 59.3613C86.5007 59.4211 86.4893 59.4821 86.4608 59.5351C86.267 59.8993 81.6833 68.4665 79.2237 70.1066C79.0419 70.228 78.823 70.2839 78.5734 70.2839L78.574 70.2833Z" fill="black"/>
<path d="M88.8725 130.16H78.2166C78.0479 130.16 77.9111 130.023 77.9111 129.854C77.9111 129.686 78.0479 129.549 78.2166 129.549H88.8725C89.0412 129.549 89.178 129.686 89.178 129.854C89.178 130.023 89.0412 130.16 88.8725 130.16Z" fill="black"/>
<path d="M62.0877 130.16H52.1111C51.9424 130.16 51.8057 130.023 51.8057 129.854C51.8057 129.686 51.9424 129.549 52.1111 129.549H62.0877C62.2564 129.549 62.3932 129.686 62.3932 129.854C62.3932 130.023 62.2564 130.16 62.0877 130.16Z" fill="black"/>
<path d="M58.4783 35.4725C57.6423 36.3131 56.8787 37.23 55.9594 37.9783C54.3187 39.3141 52.2511 40.059 50.6577 41.4512C48.5075 43.3302 47.4344 46.3654 47.925 49.1784C48.4898 52.4166 50.7967 54.1468 53.2991 55.9038C55.8677 57.7069 59.9681 57.0105 62.2123 55.0364C64.3209 53.1814 65.2145 50.0162 64.2656 47.3724C63.804 46.0868 62.9372 44.7982 63.2752 43.4749C63.6342 42.0701 65.1649 41.3578 66.1007 40.2499C66.9909 39.1962 67.3305 37.7008 66.9829 36.3661C66.6655 35.1482 65.5593 33.5166 64.2765 33.1621C62.4973 32.6703 60.363 33.7428 59.071 34.906C58.8682 35.0889 58.6715 35.2787 58.4789 35.4725H58.4783Z" fill="black"/>
<path d="M62.9628 41.4112C63.1395 42.4861 63.9162 43.2531 64.6976 43.1243C65.4789 42.9955 65.969 42.0205 65.7923 40.9456C65.6157 39.8708 64.8389 39.1037 64.0576 39.2325C63.2762 39.3613 62.7861 40.3364 62.9628 41.4112Z" fill="white"/>
<path d="M64.5283 43.4441C63.6598 43.4441 62.8483 42.6052 62.6602 41.4608C62.5645 40.8778 62.6414 40.2988 62.8768 39.8298C63.1287 39.3289 63.5299 39.0091 64.0069 38.9311C64.4833 38.8524 64.966 39.0262 65.3655 39.4206C65.7388 39.7893 65.9975 40.3136 66.0933 40.8961C66.1206 41.0625 66.0078 41.2198 65.8414 41.2471C65.6744 41.2745 65.5177 41.1616 65.4903 40.9952C65.4151 40.5387 65.2185 40.1341 64.9364 39.8554C64.6799 39.6024 64.3853 39.4896 64.1066 39.534C63.8279 39.5796 63.5852 39.7825 63.4233 40.1039C63.2455 40.4584 63.1885 40.9046 63.2638 41.3611C63.4102 42.2524 64.0439 42.9226 64.6475 42.8223C64.8133 42.7949 64.9712 42.9078 64.9985 43.0742C65.0259 43.2406 64.913 43.3979 64.7466 43.4253C64.6737 43.4372 64.6013 43.4429 64.5289 43.4429L64.5283 43.4441Z" fill="black"/>
<path d="M60.1316 111.199C59.9629 111.199 59.8262 111.063 59.8262 110.894V97.7157C59.8262 97.5471 59.9629 97.4103 60.1316 97.4103C60.3003 97.4103 60.4371 97.5471 60.4371 97.7157V110.894C60.4371 111.063 60.3003 111.199 60.1316 111.199Z" fill="black"/>
<path d="M71.6367 46.8578L72.6118 47.1912L75.716 38.1236L75.5029 37.1542L74.7409 37.7896L71.6367 46.8578Z" fill="#005B60"/>
<path d="M72.5035 91.0798C72.4038 91.0798 72.3063 91.0314 72.2476 90.9419C72.1547 90.8006 72.194 90.6114 72.3354 90.5185C74.6811 88.9792 75.7941 87.3351 76.3149 86.2266C76.878 85.0293 76.89 84.1818 76.89 84.1733C76.8911 84.0052 77.0279 83.869 77.1954 83.869H77.1966C77.3653 83.869 77.5015 84.0057 77.5015 84.1738C77.5015 84.3243 77.4468 87.8947 72.671 91.0291C72.6192 91.0633 72.5611 91.0793 72.5035 91.0793V91.0798Z" fill="black"/>
<path d="M102.909 52.6137C104.325 51.1971 104.325 48.9004 102.909 47.4838C101.492 46.0672 99.1954 46.0672 97.7788 47.4838C96.3622 48.9004 96.3622 51.1971 97.7788 52.6137C99.1954 54.0303 101.492 54.0303 102.909 52.6137Z" fill="white"/>
<path d="M100.343 53.9815C98.1746 53.9815 96.4102 52.2171 96.4102 50.0486C96.4102 47.8802 98.1746 46.1158 100.343 46.1158C102.511 46.1158 104.276 47.8802 104.276 50.0486C104.276 52.2171 102.511 53.9815 100.343 53.9815ZM100.343 46.7273C98.5114 46.7273 97.0217 48.2176 97.0217 50.0486C97.0217 51.8797 98.5119 53.37 100.343 53.37C102.174 53.37 103.664 51.8803 103.664 50.0486C103.664 48.217 102.175 46.7273 100.343 46.7273Z" fill="black"/>
<path d="M160.456 30.239C161.967 29.9928 162.993 28.5678 162.747 27.0562C162.501 25.5445 161.076 24.5187 159.564 24.7649C158.053 25.0111 157.027 26.436 157.273 27.9477C157.519 29.4593 158.944 30.4852 160.456 30.239Z" fill="white"/>
<path d="M160.01 30.5731C158.312 30.5731 156.932 29.1922 156.932 27.4945C156.932 25.7968 158.312 24.4159 160.01 24.4159C161.708 24.4159 163.089 25.7968 163.089 27.4945C163.089 29.1922 161.708 30.5731 160.01 30.5731ZM160.01 25.0274C158.65 25.0274 157.543 26.1342 157.543 27.4945C157.543 28.8548 158.65 29.9616 160.01 29.9616C161.371 29.9616 162.477 28.8548 162.477 27.4945C162.477 26.1342 161.371 25.0274 160.01 25.0274Z" fill="black"/>
<path d="M142.128 93.0506V132H147.104H152.081L149.559 127.663L150.488 91.5911L142.128 93.0506Z" fill="black"/>
<path d="M120.227 106.734C119.086 111.745 132.369 114.527 132.369 114.527L135.082 100.748C135.082 100.748 122.151 98.2789 120.227 106.734Z" fill="#D8E5F3"/>
<path d="M132.368 114.832C132.347 114.832 132.326 114.83 132.305 114.825C132.281 114.82 129.907 114.319 127.281 113.38C123.717 112.106 121.405 110.673 120.408 109.12C119.9 108.326 119.738 107.501 119.927 106.666C120.745 103.072 123.653 100.859 128.336 100.266C131.817 99.8261 135.003 100.421 135.137 100.447C135.217 100.462 135.288 100.509 135.333 100.576C135.379 100.643 135.396 100.727 135.38 100.806L132.667 114.585C132.652 114.666 132.604 114.736 132.536 114.781C132.486 114.814 132.427 114.832 132.368 114.832ZM131.061 100.729C127.182 100.729 121.691 101.672 120.524 106.802C120.369 107.48 120.5 108.13 120.923 108.79C122.911 111.89 130.513 113.787 132.128 114.159L134.72 100.997C134.132 100.908 132.749 100.729 131.061 100.729V100.729Z" fill="black"/>
<path d="M127.384 92.1217L119.965 127.133L116.18 132H121.09H126L135.081 92.9178L127.384 92.1217Z" fill="black"/>
<path d="M150.107 41.576C148.651 45.2621 145.639 47.5268 143.381 46.6344C141.123 45.7419 140.473 42.0302 141.93 38.3441C143.386 34.6581 146.398 32.3933 148.656 33.2858C150.914 34.1782 151.564 37.8899 150.107 41.576Z" fill="white"/>
<path d="M144.426 47.1359C144.025 47.1359 143.637 47.0641 143.269 46.9182C142.074 46.4463 141.255 45.2638 140.961 43.5895C140.677 41.9687 140.921 40.0658 141.646 38.2313C142.371 36.3968 143.494 34.8421 144.809 33.8534C146.167 32.8315 147.574 32.5289 148.768 33.0014C149.963 33.4738 150.783 34.6558 151.076 36.3307C151.36 37.9515 151.116 39.8538 150.391 41.6883C149.666 43.5228 148.543 45.0774 147.228 46.0662C146.288 46.7729 145.325 47.1359 144.425 47.1359H144.426ZM147.612 33.3963C146.844 33.3963 146.007 33.7177 145.176 34.3423C143.95 35.2644 142.898 36.7256 142.214 38.4564C141.529 40.1877 141.299 41.9732 141.563 43.484C141.818 44.9412 142.503 45.9585 143.493 46.35C144.482 46.741 145.678 46.4668 146.86 45.5778C148.086 44.6557 149.138 43.1945 149.822 41.4637C150.507 39.733 150.738 37.9469 150.473 36.4361C150.219 34.9789 149.533 33.9611 148.544 33.5701C148.25 33.4539 147.937 33.3963 147.612 33.3963Z" fill="black"/>
<path d="M144.799 37.7007C144.799 37.7007 145.077 44.6961 149.975 43.3546C149.975 43.3546 153.558 37.9583 151.125 35.4485C151.965 32.1636 145.286 31.9869 144.446 30.5269C140.643 34.1628 141.89 37.1804 144.799 37.7001V37.7007Z" fill="black"/>
<path d="M145.639 37.8096C145.639 39.1135 145.055 40.1701 144.334 40.1701C143.613 40.1701 143.029 39.1129 143.029 37.8096C143.029 36.5062 143.613 35.4491 144.334 35.4491C145.055 35.4491 145.639 36.5062 145.639 37.8096Z" fill="black"/>
<path d="M130.467 62.9465C130.349 62.9465 130.237 62.8781 130.187 62.7636C130.119 62.6091 130.19 62.4285 130.344 62.3612L133.087 61.161C133.241 61.0932 133.422 61.1639 133.489 61.3183C133.557 61.4728 133.486 61.6534 133.332 61.7207L130.589 62.9209C130.549 62.9385 130.508 62.9465 130.467 62.9465H130.467Z" fill="black"/>
<path d="M150.282 47.5189C150.59 49.0371 148.593 50.724 145.822 51.2864C143.051 51.8489 140.555 51.0739 140.246 49.5557C139.938 48.0375 141.935 46.3506 144.706 45.7881C147.478 45.2256 149.974 46.0007 150.282 47.5189Z" fill="black"/>
<path d="M157.477 30.2671L158.284 43.6072L152.744 49.2594C152.744 49.2594 142.177 47.1149 135.51 49.4589C129.3 51.6427 119.428 55.172 118.993 55.6519C118.761 54.9806 103.971 48.6171 103.971 48.6171C103.971 48.6171 102.826 52.1573 100.438 54.9441C100.438 54.9441 114.636 62.5077 117.423 63.835C120.21 65.1623 130.467 62.6405 130.467 62.6405L120.227 106.734C124.375 104.205 129.841 107.728 136.781 109.673L140.375 95.1074V110.479C143.831 111.039 147.611 110.986 151.731 109.549L155.131 59.8594C155.131 59.8594 162.472 51.1486 164.895 47.4836C167.178 44.0289 164.355 29.814 164.355 29.814C162.099 27.1207 157.477 30.2659 157.477 30.2659L157.477 30.2671Z" fill="white"/>
<path d="M144.351 111.115C143.036 111.115 141.698 111.003 140.326 110.781C140.178 110.757 140.07 110.63 140.07 110.48V97.6235L137.079 109.748C137.059 109.828 137.007 109.897 136.936 109.939C136.864 109.98 136.779 109.991 136.699 109.969C134.779 109.431 133 108.783 131.281 108.157C126.804 106.528 123.268 105.239 120.386 106.997C120.282 107.06 120.148 107.055 120.048 106.983C119.949 106.912 119.902 106.786 119.93 106.667L130.058 63.0537C127.961 63.5415 119.823 65.3173 117.292 64.1125C114.531 62.7978 100.437 55.2911 100.295 55.2153C100.213 55.1715 100.155 55.0934 100.138 55.0022C100.121 54.911 100.146 54.817 100.206 54.7469C102.528 52.0382 103.67 48.5601 103.681 48.5248C103.707 48.4427 103.767 48.376 103.846 48.3401C103.924 48.3048 104.014 48.3036 104.093 48.3378C104.13 48.3538 107.835 49.9489 111.521 51.6056C116.91 54.0277 118.522 54.8922 119.03 55.2672C119.762 54.8745 122.679 53.6481 135.409 49.1722C138.902 47.944 143.449 47.9526 146.648 48.1766C149.616 48.384 152.008 48.8103 152.64 48.9294L157.971 43.4915L157.172 30.287C157.165 30.1793 157.216 30.0761 157.305 30.0157C157.504 29.8812 162.184 26.7474 164.59 29.6202C164.623 29.6595 164.645 29.7068 164.655 29.757C164.772 30.3423 167.477 44.136 165.151 47.6551C162.867 51.1098 156.162 59.1117 155.43 59.9825L152.037 109.572C152.029 109.694 151.948 109.8 151.833 109.84C149.387 110.693 146.913 111.117 144.351 111.117V111.115ZM140.682 110.218C144.454 110.793 147.978 110.501 151.441 109.327L154.827 59.84C154.832 59.7751 154.857 59.7135 154.899 59.6639C154.972 59.5767 162.255 50.9246 164.64 47.3166C165.535 45.9642 165.72 42.5323 165.178 37.3913C164.798 33.7873 164.176 30.4973 164.071 29.9536C162.214 27.853 158.563 29.9491 157.794 30.4283L158.59 43.5895C158.595 43.6755 158.564 43.7605 158.503 43.822L152.963 49.4742C152.89 49.5483 152.786 49.5808 152.683 49.5597C152.579 49.5386 142.122 47.4591 135.612 49.7483C125.798 53.199 119.667 55.4872 119.211 55.8684C119.138 55.9482 119.034 55.979 118.928 55.9573C118.839 55.9391 118.767 55.8787 118.725 55.7989C118.113 55.1783 109.613 51.3828 104.153 49.0286C103.826 49.9301 102.774 52.5665 100.914 54.8517C103.071 55.9989 115.044 62.3635 117.555 63.5597C120.212 64.8249 130.293 62.3692 130.394 62.3441C130.498 62.3196 130.606 62.3493 130.682 62.4234C130.758 62.498 130.789 62.6063 130.765 62.71L120.678 106.147C123.694 104.743 127.326 106.066 131.49 107.582C133.107 108.171 134.777 108.779 136.561 109.293L140.079 95.035C140.116 94.8851 140.259 94.7882 140.413 94.8048C140.566 94.8236 140.682 94.9535 140.682 95.108V110.218Z" fill="black"/>
<path d="M143.335 80.5067C143.325 80.5067 143.314 80.5061 143.304 80.505C143.136 80.4879 143.014 80.3374 143.031 80.1699L144.959 61.4095C144.977 61.2414 145.126 61.12 145.295 61.1365C145.463 61.1536 145.585 61.3041 145.567 61.4716L143.639 80.232C143.623 80.3893 143.49 80.5067 143.335 80.5067Z" fill="black"/>
<path d="M146.648 39.7495C146.319 40.9429 145.402 41.731 144.602 41.5099C143.801 41.2888 143.418 40.1422 143.748 38.9488C144.078 37.7555 144.994 36.9673 145.795 37.1884C146.596 37.4095 146.978 38.5562 146.648 39.7495Z" fill="white"/>
<path d="M144.881 41.853C144.759 41.853 144.638 41.837 144.52 41.8039C144.357 41.7589 144.262 41.5908 144.307 41.4278C144.352 41.2648 144.52 41.1691 144.683 41.2147C144.969 41.2939 145.295 41.1919 145.602 40.928C145.943 40.6345 146.21 40.1872 146.353 39.668C146.497 39.1488 146.497 38.6279 146.355 38.2011C146.227 37.817 145.999 37.5622 145.713 37.483C145.088 37.3103 144.322 38.0187 144.043 39.0303C143.998 39.1927 143.829 39.2884 143.667 39.2434C143.504 39.1984 143.408 39.0303 143.454 38.8673C143.834 37.4904 144.897 36.623 145.876 36.8937C146.365 37.0288 146.741 37.4243 146.935 38.0079C147.115 38.5487 147.118 39.1961 146.942 39.831C146.767 40.4658 146.433 41.0203 146 41.3919C145.647 41.6957 145.26 41.8535 144.881 41.8535V41.853Z" fill="black"/>
</svg>
