<svg width="50" height="50" viewBox="0 0 50 50" fill="none" xmlns="http://www.w3.org/2000/svg">
<path d="M30.8485 35.7663L26.2262 37.6681C25.4945 37.9691 24.6574 37.62 24.3563 36.8883L16.5553 17.9283C16.2543 17.1966 16.6034 16.3595 17.3351 16.0584L21.9574 14.1566L18.0387 4.63251L11.6501 7.26112C7.50368 8.96698 5.52546 13.7111 7.23141 17.8574L17.7821 43.5005C19.4881 47.6468 24.2322 49.625 28.3785 47.919L34.7672 45.2904L30.8485 35.7663Z" fill="#FF624B"/>
<path d="M21.837 43.5005L11.2863 17.8574C9.58034 13.7112 11.5586 8.96702 15.7048 7.26106L18.6257 6.0593L18.0387 4.63245L11.6501 7.26106C7.50368 8.96702 5.52546 13.7112 7.23141 17.8574L17.7822 43.5005C19.3437 47.2957 23.4505 49.2723 27.3145 48.2719C24.9261 47.6531 22.848 45.9577 21.837 43.5005Z" fill="#FF4B34"/>
<path d="M18.1072 16.4288L13.674 5.65422C13.3662 4.90607 13.7232 4.05002 14.4713 3.7422L19.6756 1.6009C20.5734 1.23146 21.6006 1.65988 21.97 2.55763L26.1803 12.7904C26.5497 13.6882 26.1213 14.7154 25.2236 15.0849L20.0193 17.2262C19.2711 17.534 18.4151 17.177 18.1072 16.4288Z" fill="#FF624B"/>
<path d="M30.8748 47.4596L26.4416 36.685C26.1338 35.9368 26.4907 35.0808 27.2389 34.773L32.4432 32.6317C33.3409 32.2622 34.3682 32.6906 34.7376 33.5884L38.9479 43.8212C39.3173 44.719 38.8889 45.7462 37.9911 46.1156L32.7868 48.2569C32.0387 48.5648 31.1826 48.2077 30.8748 47.4596Z" fill="#FF624B"/>
<path d="M21.1272 16.3773L16.7365 5.70575C16.4169 4.92909 16.7874 4.04052 17.5641 3.72099L21.6235 2.05077C21.1192 1.52597 20.3277 1.33261 19.6139 1.62636L14.523 3.72099C13.7463 4.04052 13.3758 4.92909 13.6953 5.70575L18.0861 16.3773C18.4056 17.154 19.2942 17.5245 20.0708 17.205L21.3076 16.6961C21.2367 16.5991 21.1749 16.4934 21.1272 16.3773Z" fill="#FF4B34"/>
<path d="M33.8943 47.4081L29.5035 36.7365C29.184 35.9599 29.5545 35.0713 30.3312 34.7518L34.3906 33.0815C33.8863 32.5567 33.0948 32.3634 32.381 32.6571L27.2901 34.7518C26.5134 35.0713 26.1429 35.9599 26.4624 36.7365L30.8532 47.4081C31.1727 48.1848 32.0613 48.5553 32.8379 48.2357L34.0747 47.7268C34.0037 47.6299 33.942 47.5241 33.8943 47.4081Z" fill="#FF4B34"/>
<path d="M37.4805 45.161C37.2511 45.161 37.0334 45.0254 36.9396 44.8007L33.3408 36.1842C33.2161 35.8856 33.357 35.5424 33.6557 35.4177C33.9546 35.2926 34.2975 35.434 34.4222 35.7325L38.0209 44.349C38.1456 44.6477 38.0047 44.9908 37.7061 45.1156C37.6322 45.1463 37.5557 45.161 37.4805 45.161Z" fill="#FF9079"/>
<path d="M25.794 45.429C26.6339 45.429 27.3146 44.7482 27.3146 43.9084C27.3146 43.0686 26.6339 42.3878 25.794 42.3878C24.9542 42.3878 24.2734 43.0686 24.2734 43.9084C24.2734 44.7482 24.9542 45.429 25.794 45.429Z" fill="#FF4B34"/>
<path d="M19.422 7.13722C20.2618 7.13722 20.9426 6.45642 20.9426 5.61661C20.9426 4.77681 20.2618 4.09601 19.422 4.09601C18.5822 4.09601 17.9014 4.77681 17.9014 5.61661C17.9014 6.45642 18.5822 7.13722 19.422 7.13722Z" fill="#FF4B34"/>
<path d="M35.9011 27.9974C40.0323 27.9974 43.3813 24.6484 43.3813 20.5172C43.3813 16.386 40.0323 13.037 35.9011 13.037C31.7699 13.037 28.4209 16.386 28.4209 20.5172C28.4209 24.6484 31.7699 27.9974 35.9011 27.9974Z" fill="#FF4B34"/>
<path d="M35.9014 26.6289C39.2768 26.6289 42.0132 23.8926 42.0132 20.5171C42.0132 17.1416 39.2768 14.4053 35.9014 14.4053C32.5259 14.4053 29.7896 17.1416 29.7896 20.5171C29.7896 23.8926 32.5259 26.6289 35.9014 26.6289Z" fill="#FFEACF"/>
<path d="M32.9527 20.5171C32.9527 17.6939 34.8772 15.3129 37.4827 14.6141C36.9778 14.4786 36.4479 14.4053 35.9009 14.4053C32.5308 14.4053 29.7891 17.147 29.7891 20.5171C29.7891 23.8872 32.5308 26.6289 35.9009 26.6289C36.4479 26.6289 36.9778 26.5557 37.4827 26.4202C34.8772 25.7214 32.9527 23.3403 32.9527 20.5171Z" fill="#FFD59A"/>
<path d="M33.948 23.7591C33.2734 23.7591 32.7266 23.2122 32.7266 22.5376V18.6329C32.7266 17.9583 33.2734 17.4114 33.948 17.4114C34.6227 17.4114 35.1695 17.9583 35.1695 18.6329V22.5376C35.1695 23.2122 34.6227 23.7591 33.948 23.7591Z" fill="#FF624B"/>
<path d="M37.8543 23.7591C37.1797 23.7591 36.6328 23.2122 36.6328 22.5376V18.6329C36.6328 17.9583 37.1797 17.4114 37.8543 17.4114C38.5289 17.4114 39.0758 17.9583 39.0758 18.6329V22.5376C39.0758 23.2122 38.5289 23.7591 37.8543 23.7591Z" fill="#FF624B"/>
</svg>
