<svg width="188" height="44" viewBox="0 0 188 44" fill="none" xmlns="http://www.w3.org/2000/svg">
<path d="M55.208 32.0264V9.24237H62.344L67.656 24.8904L72.84 9.24237H79.816V32.0264H75.112V15.8344L69.512 32.0264H65.64L59.976 15.9944V32.0264H55.208ZM99.2793 26.9064C98.7673 28.6984 97.8073 30.0744 96.4313 31.0344C95.0553 32.0264 93.4233 32.5064 91.5033 32.5064C88.9753 32.5064 86.9273 31.7384 85.3913 30.1384C83.8553 28.5704 83.0872 26.4904 83.0872 23.8664C83.0872 21.3064 83.8553 19.1944 85.4233 17.5304C86.9593 15.8664 88.9433 15.0344 91.3753 15.0344C93.8713 15.0344 95.8553 15.8984 97.3273 17.5944C98.7993 19.2904 99.5353 21.5944 99.5353 24.4744V24.9224H87.6953C87.6953 26.3624 88.0473 27.4504 88.7193 28.1864C89.3913 28.9544 90.3513 29.3064 91.5673 29.3064C93.1673 29.3064 94.2873 28.5064 94.9273 26.9064H99.2793ZM94.8953 22.0424C94.7993 20.9544 94.4473 20.0904 93.8393 19.3864C93.2633 18.6824 92.4313 18.3304 91.3433 18.3304C90.3513 18.3304 89.5193 18.6824 88.8473 19.3224C88.2073 19.9944 87.7913 20.8904 87.6633 22.0424H94.8953ZM115.734 15.5144V18.8104L107.03 28.4424H116.31V32.0264H101.11V28.5704L109.846 19.0024H101.782V15.5144H115.734ZM123.4 9.24237V13.0824H118.856V9.24237H123.4ZM123.4 15.5144V32.0264H118.856V15.5144H123.4ZM146.754 9.24237V32.0264H141.762V22.2024H132.45V32.0264H127.458V9.24237H132.45V17.8184H141.762V9.24237H146.754ZM166.185 15.5144V32.0264H161.865V29.6904C160.585 31.5784 158.793 32.5064 156.489 32.5064C154.665 32.5064 153.257 32.0264 152.233 31.0344C151.209 30.0424 150.729 28.5704 150.729 26.6184V15.5144H155.305V24.9544C155.305 25.5944 155.305 26.0744 155.369 26.4584C155.433 26.8424 155.529 27.1944 155.721 27.5784C155.881 27.9624 156.169 28.2504 156.553 28.4424C156.937 28.6344 157.449 28.6984 158.089 28.6984C160.457 28.6984 161.673 27.1624 161.673 24.0264V15.5144H166.185ZM174.146 9.24237V17.5304C175.426 15.9304 177.154 15.1304 179.362 15.1304C181.538 15.1304 183.266 15.9304 184.546 17.5304C185.794 19.1304 186.434 21.1784 186.434 23.6104C186.434 26.2664 185.73 28.4104 184.385 30.0424C183.042 31.6744 181.282 32.4744 179.106 32.4744C176.802 32.4744 175.074 31.6424 173.922 29.9464L173.954 32.0264H169.634V9.24237H174.146ZM177.954 18.6184C176.738 18.6184 175.746 19.0984 175.042 19.9944C174.338 20.8904 173.986 22.1384 173.986 23.6744C173.986 25.2744 174.338 26.5544 175.042 27.4504C175.746 28.3784 176.706 28.8264 177.954 28.8264C179.106 28.8264 180.066 28.3784 180.77 27.4184C181.474 26.4904 181.858 25.2424 181.858 23.6424C181.858 22.1384 181.474 20.9224 180.77 19.9944C180.066 19.0984 179.106 18.6184 177.954 18.6184Z" fill="#172965"/>
<path d="M39.3864 14.4071H29.9823V3.2031C29.9823 1.43406 28.5482 0 26.7792 0H16.8314C15.0624 0 13.6283 1.43406 13.6283 3.2031C13.6283 3.9023 13.7529 4.59549 13.996 5.25105C14.7488 7.28148 16.7558 11.6258 20.9023 14.4071C21.3259 14.6912 21.7712 14.9595 22.2406 15.2068C22.5072 15.3473 22.7833 15.4689 23.0647 15.5767C24.1049 15.9751 27.2687 17.2537 29.9822 19.0448C32.0549 20.4128 33.865 22.0799 34.2654 23.8821C34.2654 23.8821 32.1912 22.4761 29.9822 21.6031C28.5193 21.0249 26.9973 20.6803 25.9796 21.1332C25.367 21.4058 25.0559 22.0955 25.2298 22.7431C25.6119 24.1665 26.5585 27.5961 27.631 30.7611C28.4041 33.0425 29.2426 35.1865 29.9822 36.3423V30.7611H39.9771C42.4139 30.7611 44.3893 28.7857 44.3893 26.3489V19.41C44.3894 16.647 42.1495 14.4071 39.3864 14.4071ZM23.1032 14.7964C22.5671 14.7964 22.0645 14.6544 21.6297 14.4071C20.7271 13.8936 20.1179 12.9238 20.1179 11.8112C20.1179 10.1625 21.4545 8.82594 23.1032 8.82594C24.7519 8.82594 26.0885 10.1625 26.0885 11.8112C26.0885 12.9239 25.4793 13.8936 24.5767 14.4071C24.1419 14.6544 23.6393 14.7964 23.1032 14.7964Z" fill="#2490EB"/>
<path d="M26.2742 33.817C26.0298 33.442 25.7749 33.0747 25.493 32.727C25.056 32.1881 24.4217 31.4429 23.7411 30.7613C23.102 30.1212 22.4219 29.537 21.8247 29.2342C21.2773 28.9568 20.6106 29.1604 20.3133 29.6973C20.1693 29.9575 20.0138 30.3074 19.8836 30.7613C19.7847 31.1061 19.7004 31.5107 19.6469 31.9823C19.5836 32.5419 19.5014 33.0987 19.384 33.6496C19.1362 34.8122 18.6975 36.6608 18.1928 37.8461C18.1222 38.0118 17.8773 37.9714 17.8643 37.7918C17.775 36.5574 17.5832 33.6783 17.5064 30.7613C17.4569 28.8822 17.455 26.9874 17.5594 25.5061C17.6118 24.7618 17.6066 24.0152 17.5414 23.2719L17.2244 19.6575C17.0868 18.0891 16.6421 16.5646 15.9203 15.1654C15.7973 14.9269 15.6691 14.6723 15.5392 14.4073C14.6915 12.6774 13.7648 10.4648 13.6283 8.82617V14.4073H2.64686C2.61347 14.9458 2.59586 15.4866 2.59586 16.0297C2.59586 21.5037 4.31321 26.5834 7.23553 30.7613H13.6283V37.1541C17.8061 40.0764 22.8859 41.7937 28.3599 41.7937C28.8998 41.7937 29.4415 41.7757 29.9823 41.7419V37.7886C29.9823 37.7886 27.1467 35.1556 26.2742 33.817Z" fill="#02C9B8"/>
<path d="M29.9823 43.4332C29.4455 43.4646 28.9046 43.4812 28.3599 43.4812C22.9386 43.4812 17.8848 41.909 13.6283 39.1967C10.2377 37.0362 7.35357 34.152 5.19302 30.7614C2.48071 26.5049 0.908531 21.4511 0.908531 16.0298C0.908531 15.485 0.926047 14.9444 0.957422 14.4074C1.11868 11.6451 1.68714 8.99228 2.60563 6.50879C1.41799 8.96081 0.603442 11.6283 0.231079 14.4363C0.0803146 15.5736 0 16.7332 0 17.9119C0 22.5839 1.2232 26.9683 3.36349 30.7614C5.76908 35.0247 9.33381 38.5404 13.6284 40.8745C17.2964 42.8681 21.4959 44.0004 25.9587 44.0004C27.3274 44.0004 28.6709 43.8926 29.9823 43.6874C30.8198 43.5565 31.6445 43.3865 32.4534 43.1771C31.6408 43.2986 30.8165 43.3843 29.9823 43.4332Z" fill="#2490EB"/>
</svg>
